<?xml version="1.0" standalone="no"?>
<!DOCTYPE svg PUBLIC "-//W3C//DTD SVG 1.1//EN" "http://www.w3.org/Graphics/SVG/1.1/DTD/svg11.dtd" >
<svg xmlns="http://www.w3.org/2000/svg">
  <metadata>Created by iconfont</metadata>
  <defs>
  <font id="iconfont" horiz-adv-x="1024">
    <font-face
      font-family="iconfont"
      font-weight="400"
      font-stretch="normal"
      units-per-em="1024"
      ascent="896"
      descent="-128"
    />
      <missing-glyph />
      
      <glyph glyph-name="to-right" unicode="&#58967;" d="M981.51662426 405.31456876c0-7.02095809-2.79513597-13.76372638-7.76279454-18.73138625l-288.69384076-288.69384076c-5.17961203-5.16636502-11.96212263-7.76279454-18.73138626-7.76279454-6.78251061 0-13.56501994 2.58318251-18.74463325 7.76279454-10.34597705 10.34597705-10.34597705 27.11679415 0 37.46277121l243.48152074 243.48152071-782.90304078 0c-14.62478722 0-26.4941808 11.86939357-26.4941808 26.4941808 0 14.63803423 11.86939357 26.4941808 26.4941808 26.4941808l782.87654675 0-243.46827372 243.46827371c-10.34597705 10.34597705-10.34597705 27.11679415 0 37.47601822 10.34597705 10.34597705 27.13004116 10.34597705 37.47601821 0l288.70708777-288.72033478C978.72148829 419.07829514 981.51662426 412.34877387 981.51662426 405.31456876z"  horiz-adv-x="1024" />
      
      <glyph glyph-name="list-settings-fill" unicode="&#58892;" d="M85.333333 128h298.666667v-85.333333H85.333333v85.333333z m0 298.666667h384v-85.333334H85.333333v85.333334z m0 298.666666h853.333334v-85.333333H85.333333V725.333333z m796.757334-385.066666l49.322666 16.682666 42.666667-73.898666-39.082667-34.346667a171.392 171.392 0 0 0 0-70.741333l39.082667-34.346667-42.666667-73.898667-49.322666 16.682667c-17.493333-15.786667-38.314667-27.946667-61.226667-35.413333L810.666667 0h-85.333334l-10.24 51.029333a170.496 170.496 0 0 0-61.184 35.413334l-49.322666-16.725334-42.666667 73.898667 39.082667 34.346667a171.392 171.392 0 0 0 0 70.741333l-39.082667 34.346667 42.666667 73.898666 49.322666-16.682666c17.493333 15.786667 38.314667 27.946667 61.226667 35.413333L725.333333 426.666667h85.333334l10.24-51.029334c22.869333-7.424 43.690667-19.626667 61.184-35.413333zM768 170.666667a42.666667 42.666667 0 1 1 0 85.333333 42.666667 42.666667 0 0 1 0-85.333333z"  horiz-adv-x="1024" />
      
      <glyph glyph-name="renzhengguanli" unicode="&#58986;" d="M812.37333333 452.26666667V684.37333333l-341.33333333 150.18666667-341.33333333-150.18666667v-259.41333333s0-327.68 293.54666666-395.94666667v88.74666667C238.93333333 186.02666667000005 238.93333333 397.65333333 238.93333333 411.30666667v204.8l245.76 102.4 238.93333334-102.4v-122.88l88.74666666-40.96zM696.32 384L512 281.6v-211.62666667l184.32-109.22666666 184.32 109.22666666V281.6L696.32 384z m109.22666667-279.89333333l-109.22666667-61.44-109.22666667 61.44v129.70666666l109.22666667 61.44 109.22666667-61.44v-129.70666666z"  horiz-adv-x="1024" />
      
      <glyph glyph-name="QQ" unicode="&#59198;" d="M512 896C229.003636 896 0 666.996364 0 384s229.003636-512 512-512 512 229.003636 512 512S794.996364 896 512 896z m210.385455-641.396364c-7.447273-9.309091-26.996364 1.861818-41.89091 32.581819-3.723636-13.963636-13.032727-36.305455-34.443636-64.232728 35.374545-8.378182 44.683636-42.821818 33.512727-61.44-8.378182-13.032727-26.996364-24.203636-59.578181-24.203636-58.647273 0-83.781818 15.825455-95.883637 26.996364-1.861818 2.792727-5.585455 3.723636-10.24 3.723636-4.654545 0-7.447273-0.930909-10.24-3.723636-11.170909-11.170909-37.236364-26.996364-95.883636-26.996364-32.581818 0-52.130909 11.170909-59.578182 24.203636-12.101818 18.618182-1.861818 53.061818 33.512727 61.44-20.48 27.927273-29.789091 50.269091-34.443636 64.232728-13.963636-30.72-34.443636-42.821818-41.890909-32.581819-5.585455 8.378182-8.378182 26.065455-7.447273 38.167273 3.723636 46.545455 34.443636 85.643636 53.061818 106.123636-2.792727 5.585455-8.378182 40.029091 14.894546 63.301819v1.861818c0 92.16 65.163636 158.254545 148.014545 158.254545 81.92 0 148.014545-66.094545 148.014546-158.254545v-1.861818c23.272727-23.272727 17.687273-57.716364 14.894545-63.301819 17.687273-20.48 49.338182-59.578182 53.061818-106.123636 0.930909-12.101818-0.930909-29.789091-7.447272-38.167273z"  horiz-adv-x="1024" />
      
      <glyph glyph-name="weixin" unicode="&#58887;" d="M337.387283 554.17341c-17.757225 0-35.514451-11.83815-35.514451-29.595375s17.757225-29.595376 35.514451-29.595376 29.595376 11.83815 29.595376 29.595376c0 18.49711-11.83815 29.595376-29.595376 29.595375zM577.849711 382.520231c-11.83815 0-22.936416-12.578035-22.936416-23.6763 0-12.578035 11.83815-23.676301 22.936416-23.676301 17.757225 0 29.595376 11.83815 29.595376 23.676301s-11.83815 23.676301-29.595376 23.6763zM501.641618 494.982659c17.757225 0 29.595376 12.578035 29.595376 29.595376 0 17.757225-11.83815 29.595376-29.595376 29.595375s-35.514451-11.83815-35.51445-29.595375 17.757225-29.595376 35.51445-29.595376zM706.589595 382.520231c-11.83815 0-22.936416-12.578035-22.936416-23.6763 0-12.578035 11.83815-23.676301 22.936416-23.676301 17.757225 0 29.595376 11.83815 29.595376 23.676301s-11.83815 23.676301-29.595376 23.6763zM510.520231 893.040462C228.624277 893.040462 0 664.416185 0 382.520231s228.624277-510.520231 510.520231-510.520231 510.520231 228.624277 510.520231 510.520231-228.624277 510.520231-510.520231 510.520231zM413.595376 251.560694c-29.595376 0-53.271676 5.919075-81.387284 12.578034l-81.387283-41.433526 22.936416 71.768786c-58.450867 41.433526-93.965318 95.445087-93.965317 159.815029 0 113.202312 105.803468 201.988439 233.803468 201.98844 114.682081 0 216.046243-71.028902 236.023121-166.473989-7.398844 0.739884-14.797688 1.479769-22.196532 1.479769-110.982659-1.479769-198.289017-85.086705-198.289017-188.67052 0-17.017341 2.959538-33.294798 7.398844-49.572255-7.398844-0.739884-15.537572-1.479769-22.936416-1.479768z m346.265896-82.867052l17.757225-59.190752-63.630058 35.514451c-22.936416-5.919075-46.612717-11.83815-70.289017-11.83815-111.722543 0-199.768786 76.947977-199.768786 172.393063-0.739884 94.705202 87.306358 171.653179 198.289017 171.65318 105.803468 0 199.028902-77.687861 199.028902-172.393064 0-53.271676-34.774566-100.624277-81.387283-136.138728z"  horiz-adv-x="1024" />
      
      <glyph glyph-name="shenfenguanli" unicode="&#58977;" d="M512 343.98c64.26 0 109.56-37.56 134.58-99.6 16.8-41.64 24.48-93.24 25.32-151.14l0.12-10.92V24c0-21.06-16.32-38.4-37.02-39.9l-3-0.12H111.98a40.02 40.02 0 0 0-39.9 37.02l-0.06 3v58.32c0 62.34 7.5 117.78 25.38 162.06 24.3 60.18 67.62 97.32 128.82 99.54l5.76 0.06H512z m283.98 0l5.1-0.06c100.56-3.78 149.28-119.4 150.9-254.82V24l-0.06-3a40.02 40.02 0 0 0-36.78-36.9l-3.12-0.12h-84a25.98 25.98 0 0 0-21.9 12.06l-1.32 2.34-13.98 28.02a25.98 25.98 0 0 0 20.58 37.5l2.64 0.12H872v24.54c-1.38 95.58-33.18 172.14-73.38 175.32l-2.64 0.12h-47.94a25.98 25.98 0 0 0-21.9 12l-1.32 2.4-13.98 27.96a25.98 25.98 0 0 0 20.58 37.5l2.64 0.12h61.92zM512 264H231.98c-48.36 0-75.24-56.7-79.44-154.08l-0.24-6.72-0.24-13.8-0.06-25.38h439.98V89.39999999999998l-0.3 13.8c-3 96.96-27.84 155.4-73.2 160.44l-3.24 0.36H512z m141 399a139.98 139.98 0 1 0 198-198 139.98 139.98 0 0 0-198 198z m-153.72 68.28A180 180 0 1 0 244.7 476.7a180 180 0 0 0 254.58 254.58z m295.2-124.8a60 60 0 0 1-79.02 5.1l-3-2.4-2.88-2.76-2.7-2.88a60 60 0 1 1 87.6 2.88z m-493.2 68.22a100.02 100.02 0 1 1 144.9-3.6l-3.48 3.6-3.6 3.48a100.02 100.02 0 0 1-137.82-3.48z"  horiz-adv-x="1024" />
      
      <glyph glyph-name="shujufenxi" unicode="&#58979;" d="M934.3 658.3C822 652.7 824.7 434.6 797.5 356.5c-35.1-100.9-122.4-187.1-239.9-152.3-100.1 29.6-165.9 223-287.9 149.6-83.6-50.3-125.5-160.2-145.8-251.8-0.2-0.9-0.6-1.7-0.8-2.5V5h780c17.2 0 31.2-14 31.2-31.2s-14-31.2-31.2-31.2H91.9c-17.2 0-31.2 14-31.2 31.2V785c0 17.2 14 31.2 31.2 31.2s31.2-14 31.2-31.2v-505.2c22.5 40.9 50.4 78.3 85.2 107.4C314.2 475.5 424.4 413 497.9 323c46.5-57 137.5-94.5 197.2-27.7 46.2 51.6 56.8 127.3 70.3 192.8 20.5 99.5 45.6 226.5 168.8 232.6 40.3 2 40.1-60.4 0.1-62.4z"  horiz-adv-x="1024" />
      
      <glyph glyph-name="shenjiguanli" unicode="&#58981;" d="M880.64 363.52l-143.36 46.08c-5.12 0-10.24 5.12-20.48 5.12-5.12 0-15.36 0-20.48-5.12l-143.36-46.08c-25.6-10.24-46.08-30.72-46.08-61.44v-199.68c0-20.48 10.24-40.96 30.72-51.2l148.48-97.28c10.24-5.12 20.48-10.24 35.84-10.24 15.36 0 25.6 5.12 35.84 10.24l138.24 102.4c15.36 10.24 25.6 30.72 25.6 51.2v194.56c5.12 25.6-15.36 51.2-40.96 61.44z m-20.48-256l-138.24-102.4-148.48 97.28v199.68l143.36 46.08 143.36-46.08v-194.56z m-250.88 409.6c0 15.36-15.36 30.72-30.72 30.72L256 542.72c-15.36 0-30.72-15.36-30.72-30.72s15.36-30.72 30.72-30.72l322.56 5.12c15.36-5.12 30.72 10.24 30.72 30.72z m-220.16-143.36H256c-15.36 0-30.72-15.36-30.72-30.72s15.36-30.72 30.72-30.72h133.12c15.36 0 30.72 15.36 30.72 30.72s-15.36 30.72-30.72 30.72z m0-174.08H256c-15.36 0-30.72-15.36-30.72-30.72s15.36-30.72 30.72-30.72h133.12c15.36 0 30.72 15.36 30.72 30.72s-15.36 30.72-30.72 30.72zM660.48 215.04c-10.24 10.24-30.72 10.24-46.08 0s-10.24-30.72 0-46.08l66.56-61.44c5.12-5.12 15.36-10.24 20.48-10.24 10.24 0 15.36 5.12 20.48 10.24l97.28 92.16c15.36 10.24 15.36 30.72 0 46.08s-30.72 15.36-46.08 0l-76.8-71.68c10.24 0-35.84 40.96-35.84 40.96zM481.28 0H163.84V701.44h122.88v-25.6c0-20.48 15.36-35.84 35.84-35.84h276.48c20.48 0 40.96 15.36 40.96 40.96v20.48h122.88v-225.28c0-15.36 15.36-30.72 30.72-30.72s30.72 15.36 30.72 30.72V701.44c0 35.84-30.72 66.56-61.44 66.56h-122.88V793.6c0 20.48-15.36 40.96-40.96 40.96H322.56c-20.48 0-35.84-20.48-35.84-40.96v-25.6H163.84c-35.84 0-66.56-30.72-66.56-66.56v-701.44c0-35.84 30.72-66.56 66.56-66.56h317.44c15.36 0 30.72 15.36 30.72 30.72s-15.36 35.84-30.72 35.84z m-133.12 768h230.4v-66.56H348.16V768z"  horiz-adv-x="1024" />
      
      <glyph glyph-name="a-shujutongbu1" unicode="&#58982;" d="M703.14666667 261.12c6.82666667 0 6.82666667-6.82666667 6.82666666-6.82666667-6.82666667-109.22666667-95.57333333-191.14666667-197.97333333-191.14666666-54.61333333 0-116.05333333 27.30666667-150.18666667 68.26666666l-27.30666666-20.48h-13.65333334v109.22666667c0 6.82666667 6.82666667 6.82666667 6.82666667 6.82666667l95.57333333-27.30666667c6.82666667 0 6.82666667-6.82666667 0-13.65333333l-27.30666666-20.48 6.82666666-6.82666667c54.61333333-54.61333333 136.53333333-54.61333333 191.14666667 0 27.30666667 20.48 40.96 54.61333333 40.96 88.74666667 0 6.82666667 6.82666667 6.82666667 6.82666667 6.82666666h61.44zM512 766.29333333c136.53333333 0 252.58666667-81.92 300.37333333-204.8 88.74666667-20.48 150.18666667-102.4 150.18666667-197.97333333 0-102.4-81.92-191.14666667-184.32-197.97333333-6.82666667 0-6.82666667 0-6.82666667 6.82666666v61.44c0 6.82666667 0 6.82666667 6.82666667 6.82666667 27.30666667 0 54.61333333 13.65333333 75.09333333 34.13333333 47.78666667 47.78666667 47.78666667 129.70666667 0 177.49333334-13.65333333 13.65333333-34.13333333 27.30666667-54.61333333 34.13333333l-40.96 6.82666667-13.65333333 34.13333333c-6.82666667 20.48-20.48 40.96-34.13333334 61.44-54.61333333 68.26666667-122.88 102.4-197.97333333 102.4-47.78666667 0-102.4-13.65333333-143.36-40.96-40.96-27.30666667-68.26666667-68.26666667-88.74666667-116.05333333l-13.65333333-40.96-40.96-6.82666667c-27.30666667-6.82666667-47.78666667-20.48-68.26666667-40.96-13.65333333-27.30666667-20.48-54.61333333-20.48-81.92 0-34.13333333 13.65333333-68.26666667 34.13333334-88.74666667 20.48-20.48 47.78666667-34.13333333 75.09333333-34.13333333 6.82666667 0 6.82666667-6.82666667 6.82666667-6.82666667v-61.44c0-6.82666667-6.82666667-6.82666667-6.82666667-6.82666666-102.4 6.82666667-184.32 95.57333333-184.32 197.97333333 0 88.74666667 61.44 170.66666667 150.18666667 197.97333333 47.78666667 122.88 163.84 204.8 300.37333333 204.8z m0-307.2c61.44 0 116.05333333-27.30666667 150.18666667-68.26666666l20.48 20.48h13.65333333v-109.22666667c0-6.82666667-6.82666667-6.82666667-6.82666667-6.82666667l-102.4 27.30666667c-6.82666667 0-6.82666667 0-6.82666666 6.82666667v6.82666666l27.30666666 20.48-6.82666666 6.82666667c-54.61333333 54.61333333-136.53333333 54.61333333-191.14666667 0-20.48-27.30666667-34.13333333-61.44-34.13333333-95.57333333 0-6.82666667-6.82666667-6.82666667-6.82666667-6.82666667h-54.61333333L307.2 267.94666667c6.82666667 109.22666667 95.57333333 191.14666667 204.8 191.14666666z"  horiz-adv-x="1024" />
      
      <glyph glyph-name="shujuxiafa" unicode="&#58983;" d="M584 72V144h174c6 0 6 6 6 6v60c0 6-6 6-6 6H584V288c0 6-6 6-6 6H572l-138-108c-6 0-6-6 0-12L572 66c0-6 6-6 12 6 0-6 0-6 0 0z m210 444l12 12c-66 162-246 246-408 180-84-30-150-96-180-180C116 504 50 396 80 288 98 204 176 144 266 144h42c6 0 6 6 6 6v60c0 6-6 6-6 6h-42c-36 0-66 12-90 36-36 48-42 114-6 162 18 18 42 36 66 42l36 12 12 36c6 24 18 42 36 60 78 102 222 120 330 48 18-12 36-30 54-48 12-18 24-42 36-60l12-36 36-12c54-12 90-60 90-120 0-30-12-66-36-84-24-24-54-36-84-36h-42c-6 0-6-6-6-6v-60c0-6 6-6 6-6h42c108 0 198 84 198 192 0 90-60 168-144 192l-18-12z"  horiz-adv-x="1024" />
      
      <glyph glyph-name="xitongguanli" unicode="&#58984;" d="M928 268.8l-64 57.6c0 19.2 6.4 38.4 6.4 57.6s0 38.4-6.4 57.6l64 57.6c12.8 6.4 12.8 25.6 6.4 38.4-19.2 51.2-44.8 96-76.8 140.8-6.4 12.8-25.6 12.8-32 6.4l-83.2-32c-32 25.6-64 44.8-102.4 57.6l-19.2 89.6c0 12.8-12.8 25.6-25.6 25.6-57.6 6.4-108.8 6.4-160 0-12.8 0-25.6-12.8-25.6-25.6l-19.2-89.6c-38.4-12.8-70.4-32-102.4-57.6l-83.2 32c-12.8 6.4-25.6 0-32-6.4-32-38.4-64-89.6-76.8-140.8-6.4-12.8 0-25.6 6.4-38.4l64-57.6c0-19.2-6.4-38.4-6.4-57.6 0-19.2 0-38.4 6.4-57.6l-64-57.6c-12.8-6.4-12.8-25.6-6.4-38.4 19.2-51.2 44.8-96 76.8-140.8 6.4-12.8 25.6-12.8 32-6.4l83.2 32c32-25.6 64-44.8 96-57.6l12.8-83.2c0-12.8 12.8-25.6 25.6-25.6 38.4-12.8 64-12.8 89.6-12.8s51.2 0 76.8 6.4c12.8 0 25.6 12.8 25.6 25.6l12.8 83.2c38.4 12.8 70.4 32 102.4 57.6l83.2-32c12.8-6.4 25.6 0 32 6.4 32 38.4 64 89.6 76.8 140.8 19.2 25.6 12.8 38.4 6.4 44.8z m-140.8 160c0-12.8 6.4-32 6.4-44.8s0-32-6.4-44.8l-6.4-38.4 76.8-64c-12.8-25.6-25.6-51.2-44.8-70.4l-89.6 25.6-32-25.6c-25.6-19.2-51.2-32-76.8-44.8l-38.4-12.8-19.2-96c-25.6-6.4-57.6-6.4-83.2 0l-19.2 96-38.4 12.8c-25.6 12.8-57.6 25.6-76.8 44.8l-38.4 25.6-96-32c-19.2 25.6-32 44.8-44.8 70.4l76.8 64v44.8c0 12.8-6.4 32-6.4 44.8 0 12.8 0 32 6.4 44.8l6.4 38.4-76.8 64c12.8 25.6 25.6 51.2 44.8 76.8l89.6-32 32 25.6c25.6 19.2 51.2 32 83.2 44.8l38.4 12.8 19.2 96h83.2L576 659.2l38.4-12.8c25.6-12.8 57.6-25.6 76.8-44.8l32-25.6 89.6 32c19.2-25.6 32-44.8 44.8-76.8l-76.8-64 6.4-38.4zM512 569.6c-96 0-179.2-76.8-179.2-179.2s76.8-179.2 179.2-179.2 179.2 76.8 179.2 179.2S608 569.6 512 569.6z m76.8-256c-19.2-19.2-44.8-32-76.8-32s-57.6 12.8-76.8 32c-25.6 19.2-32 51.2-32 83.2s12.8 57.6 32 76.8c19.2 19.2 44.8 32 76.8 32s57.6-12.8 76.8-32c19.2-19.2 32-51.2 32-76.8 6.4-32-6.4-64-32-83.2z"  horiz-adv-x="1024" />
      
      <glyph glyph-name="a-yingyongguanli1" unicode="&#58985;" d="M396.8 825.6H134.4c-32 0-64-25.6-64-64v-262.4c0-32 25.6-64 64-64h262.4c32 0 64 25.6 64 64V761.6c0 32-25.6 64-64 64z m-256-320V755.2h249.6V512H140.8z m748.8 320H627.2c-32 0-64-25.6-64-64v-262.4c0-32 25.6-64 64-64h262.4c32 0 64 25.6 64 64V761.6c0 32-32 64-64 64z m-6.4-320H633.6V755.2h243.2c6.4 0 6.4-249.6 6.4-249.6zM396.8 332.79999999999995H134.4c-32 0-64-25.6-64-64v-262.4c0-32 25.6-64 64-64h262.4c32 0 64 25.6 64 64V268.79999999999995c0 32-32 64-64 64z m-6.4-320H140.8V262.4H384c6.4 0 6.4-249.6 6.4-249.6z m537.6 96h-185.6c-12.8 0-19.2 6.4-19.2 19.2v19.2c0 12.8 6.4 19.2 19.2 19.2h185.6c12.8 0 19.2-6.4 19.2-19.2v-19.2c-6.4-6.4-12.8-19.2-19.2-19.2z m0 140.8h-320c-12.8 0-19.2 6.4-19.2 19.2v19.2c0 12.8 6.4 19.2 19.2 19.2h320c12.8 0 19.2-6.4 19.2-19.2v-19.2c-6.4-6.4-12.8-19.2-19.2-19.2z m0-281.6h-320c-12.8 0-19.2 6.4-19.2 19.2v19.2c0 12.8 6.4 19.2 19.2 19.2h320c12.8 0 19.2-6.4 19.2-19.2v-19.2c-6.4-6.4-12.8-19.2-19.2-19.2z"  horiz-adv-x="1024" />
      
      <glyph glyph-name="resou" unicode="&#58907;" d="M756.184615 549.415385l-74.830769-70.892308s0 283.569231-244.184615 378.092308c0 0-23.630769-259.938462-145.723077-354.461539s-370.215385-378.092308 122.092308-590.769231c0 0-244.184615 259.938462 74.830769 448.984616 0 0-23.630769-94.523077 98.461538-189.046154s0-259.938462 0-259.938462 586.830769 141.784615 169.353846 638.03077z"  horiz-adv-x="1024" />
      
      <glyph glyph-name="shangxian" unicode="&#59029;" d="M939.09447111 419.21080889c-18.36600889 0-33.14005333-14.77518222-33.14005333-33.14005334 0-215.13557333-174.95267555-390.08711111-390.08711111-390.0871111s-390.08711111 174.95267555-390.08711112 390.0871111c0 18.36600889-14.77518222 33.14005333-33.14005333 33.14005334s-33.14005333-14.77518222-33.14005333-33.14005334c0-61.58563555 12.01379555-121.37585778 35.90144-177.71406222 22.92167111-54.40625778 55.92405333-103.14865778 97.76355556-145.12696888 41.83950222-41.83950222 90.72071111-74.84074667 145.12696888-97.76355556 56.33820445-23.75111111 116.12842667-35.90144 177.71406222-35.90144 61.58563555 0 121.37585778 12.01379555 177.71406223 35.90144 54.40625778 22.92167111 103.14865778 55.92405333 145.12696889 97.76355556 41.83950222 41.83950222 74.84074667 90.72071111 97.76355555 145.12696888 23.75111111 56.33820445 35.90144 116.12842667 35.90144 177.71406222-0.27534222 18.36600889-15.05166222 33.14005333-33.41653333 33.14005334zM307.08394667 569.30872889c8.42410667 0 16.98474667 3.17553778 23.47349333 9.66656l148.16369778 148.16369778v-549.85045334c0-18.36600889 14.77518222-33.14005333 33.14005333-33.14005333s33.14005333 14.77518222 33.14005334 33.14005333v549.85045334l148.16369777-148.16369778c6.48874667-6.48874667 14.91285333-9.66656 23.47349333-9.66656s16.98474667 3.17553778 23.47349334 9.66656c12.97976889 12.97976889 12.97976889 33.96835555 0 46.81045333l-204.50304 204.64071111c-6.48874667 6.48874667-15.18819555 9.80423111-23.75111111 9.66656-8.56064 0-17.12355555-3.17553778-23.61230223-9.66656l-204.50304-204.64071111c-12.97976889-12.97976889-12.97976889-33.96835555 0-46.81045333 6.35221333-6.48874667 14.91285333-9.66656 23.33696-9.66656z"  horiz-adv-x="1024" />
      
      <glyph glyph-name="icon_xinyong_xianxing_jijin-285" unicode="&#58990;" d="M543.50000001 225.375l59.62499999 59.625c9 9 9 22.50000001 0 31.49999999s-22.50000001 9-31.5 0L512 256.875 384.875 384l59.62499999 59.625c9 9 9 22.50000001 0 31.5-9 9-22.50000001 9-31.49999999 0l-59.625-59.62499999-64.125 64.12499999c-9 9-23.625 9-31.5 0l-47.25000001-47.25c-91.125-91.125-95.625-236.25-14.62499999-333L68.75-27.75c-9-9-9-22.50000001 0-31.5 4.50000001-4.50000001 10.125-6.75 15.75000001-6.75s11.25 2.25 15.74999999 6.75l127.125 127.125c46.125-38.25 102.375-57.375 158.625-57.37500001 63 0 127.125 23.625 175.50000001 72l47.24999999 47.25000001c9 9 9 22.50000001 0 31.5l-65.24999999 64.125zM528.875 114c-78.75-78.75-208.125-78.75-286.875 0s-78.75 207 0 286.875l31.50000001 31.5 286.87499999-286.87499999-31.5-31.50000001zM955.25 827.25c-9 9-22.50000001 9-31.5 0L796.625 701.25C699.875 782.25 554.75 777.75 463.625 686.625l-47.25-47.25c-4.50000001-4.50000001-6.75-10.125-6.75-15.75s2.25-11.25 6.75-15.75l318.375-318.37500001c4.50000001-4.50000001 10.125-6.75 15.75000001-6.74999999s11.25 2.25 15.74999999 6.74999999l47.25000001 47.25000001c91.125 91.125 95.625 236.25 14.62499999 333L955.25 795.75c9 9 9 22.50000001 0 31.5zM782 367.125l-31.50000001-31.5-286.87499999 286.87500001 31.5 31.49999999c78.75 78.75 207 78.75 286.875 0 78.75-78.75 78.75-208.125 0-286.875z"  horiz-adv-x="1024" />
      
      <glyph glyph-name="yingyong" unicode="&#58976;" d="M540.125 348.5625v-217.6875a28.125 28.125 0 0 0-28.125-28.125 27.5625 27.5625 0 0 0-28.125 28.125V348.5625L287 462.1875a28.125 28.125 0 0 0-10.125 38.25 27.5625 27.5625 0 0 0 38.25 10.125l196.875-112.5 195.1875 112.5a27.5625 27.5625 0 0 0 38.25-10.125 28.125 28.125 0 0 0-10.125-38.25l-195.1875-112.5zM118.25 609v-450l393.75-225 393.75 225V609L512 834z m731.25-421.875L512-9.75l-337.5 196.875v393.75L512 777.75l337.5-196.875z"  horiz-adv-x="1024" />
      
      <glyph glyph-name="compare" unicode="&#58899;" d="M535.53125 10.6875c0-7.3125 7.40625 0 0 0z m-46.125 0c-7.40625 0 0-7.3125 0 0z m411 611.625c-2.53125 2.34375-6 3.75-9.46875 3.75-2.625 0-5.0625-0.75-7.3125-2.25l-348.09375-227.8125V748.59375c0 7.3125-15.65625 0-23.0625 0-7.40625 0-23.0625 7.3125-23.0625 0v-352.6875l-348.09375 227.8125c-2.34375 1.5-4.78125 2.25-7.40625 2.25-6.46875 0-13.5-5.0625-13.5-13.3125v-466.3125c0-8.15625 7.03125-13.21875 13.59375-13.21875 2.53125 0 5.0625 0.75 7.3125 2.25l348.09375 227.8125v-352.6875h46.125V363.375l348.09375-227.8125c2.34375-1.5 4.78125-2.25 7.40625-2.25 3.46875 0 6.9375 1.40625 9.46875 3.75 1.875 1.6875 4.03125 4.78125 4.03125 9.46875V612.75c0 4.78125-2.25 7.78125-4.125 9.5625z"  horiz-adv-x="1024" />
      
      <glyph glyph-name="rollback" unicode="&#58975;" d="M410.47988147 53.89274075000003c3.88361482 19.41807408 27.1853037 34.95253333 46.60337778 27.1853037 11.65084445-3.88361482 23.30168889-3.88361482 34.95253334-7.76722963 19.41807408-3.88361482 34.95253333-23.30168889 31.06891851-42.71976297-3.88361482-19.41807408-23.30168889-34.95253333-42.71976296-31.06891852-15.53445925 3.88361482-27.1853037 3.88361482-42.71976296 7.76722964-23.30168889 7.76722963-34.95253333 27.1853037-27.18530371 46.60337778z m217.48242963 34.95253333c19.41807408 7.76722963 42.71976297-3.88361482 50.4869926-27.18530371s-3.88361482-42.71976297-27.1853037-50.48699259c-15.53445925-3.88361482-27.1853037-7.76722963-42.71976297-11.65084445-19.41807408-3.88361482-42.71976297 11.65084445-46.60337778 31.06891852s11.65084445 42.71976297 31.06891852 46.60337778l34.95253333 11.65084445z m-349.52533333 54.3706074c15.53445925 15.53445925 38.83614815 19.41807408 54.37060741 3.88361482 7.76722963-7.76722963 19.41807408-15.53445925 27.18530371-19.41807408 19.41807408-11.65084445 23.30168889-34.95253333 11.65084444-54.3706074s-34.95253333-23.30168889-54.37060741-11.65084445c-11.65084445 7.76722963-23.30168889 15.53445925-34.95253333 27.18530371-15.53445925 11.65084445-15.53445925 38.83614815-3.88361482 54.3706074z m524.288-42.71976296c-7.76722963-7.76722963-23.30168889-19.41807408-34.95253333-27.1853037-15.53445925-11.65084445-42.71976297-7.76722963-54.37060741 7.76722963-11.65084445 15.53445925-7.76722963 42.71976297 7.76722964 54.3706074 7.76722963 3.88361482 11.65084445 7.76722963 19.41807407 15.53445926l7.76722963 7.76722964 3.88361481 3.8836148 3.88361482 3.88361482c58.25422222 58.25422222 89.32314075 135.92651852 89.32314074 221.36604445 0 170.87905185-139.81013333 310.68918518-310.68918519 310.68918518s-310.68918518-139.81013333-310.68918518-310.68918518c0-23.30168889-15.53445925-38.83614815-38.83614815-38.83614815s-38.83614815 15.53445925-38.83614815 38.83614815C146.39407407 597.5988148199999 321.15674074 772.36148148 534.75555555 772.36148148s388.36148148-174.76266667 388.36148148-388.36148148c0-104.8576-42.71976297-201.94797037-112.62482963-275.73665185l-3.88361481-3.88361482-3.88361482-3.88361481zM158.04491852 267.49155555000004l-77.6722963 93.20675556c-3.88361482 7.76722963-7.76722963 15.53445925-7.76722963 27.18530371 0 15.53445925 7.76722963 27.1853037 23.30168888 34.95253333H262.90251852c3.88361482 0 11.65084445 0 15.53445925-3.88361482 11.65084445-3.88361482 23.30168889-15.53445925 23.3016889-34.95253333 0-7.76722963-3.88361482-19.41807408-7.76722964-27.1853037l-77.67229629-93.20675555-3.88361482-3.88361483c-3.88361482-3.88361482-7.76722963-3.88361482-11.65084445-7.76722962h-31.0689185c-3.88361482 0-7.76722963 3.88361482-11.65084445 7.76722962V267.49155555000004z m337.87448888 310.6891852v-198.06435557c3.88361482-19.41807408 19.41807408-34.95253333 38.83614815-34.95253333h120.39205926c19.41807408 3.88361482 34.95253333 19.41807408 34.95253333 38.83614815v3.88361482c-3.88361482 19.41807408-19.41807408 34.95253333-38.83614814 34.95253333h-77.6722963v159.2282074c-3.88361482 19.41807408-19.41807408 34.95253333-38.83614815 34.95253334-23.30168889 0-38.83614815-15.53445925-38.83614815-38.83614814z"  horiz-adv-x="1024" />
      
      <glyph glyph-name="yewuziduanku" unicode="&#59052;" d="M880 784H144c-17.6 0-32-14.4-32-32v-736c0-17.6 14.4-32 32-32h736c17.6 0 32 14.4 32 32V752c0 17.6-14.4 32-32 32z m-40-728H184V712h656v-656zM325.1 495.2c25.2 42.5 40.9 57.2 49.6 62.1 8.8 4.9 28.5 10.8 72.4 10.8 12.6 0 19.5-0.4 23.2-0.7 0.3-2.3 0.5-5.9 0.5-11.4v-345.6c0-2.7-0.8-3.4-2.1-4.2-1.2-0.7-6.2-3.1-21.6-3.1h-48.7v-39.8h234.2V203h-48.7c-8.8 0-15.7 1.2-20.7 3.7-3 1.5-3 2.5-3 3.6V553.4c0 6.8 0.3 11.1 0.6 13.7 5 0.4 15 0.9 35.2 0.9 45.4 0 61.4-6.9 66.9-11.1 7.4-5.6 21.6-20.8 47.2-62l4.2-6.8 43.4 5.3-40.1 116.8H317.8l-45.2-117.1 48.4-4.9 4.1 7z"  horiz-adv-x="1024" />
      
      <glyph glyph-name="dangqianweizhi" unicode="&#58974;" d="M512 780c-216 0-396-175.5-396-396s175.5-396 396-396 396 175.5 396 396-180 396-396 396M512 834c247.5 0 450-202.5 450-450s-202.5-450-450-450S62 136.5 62 384 264.5 834 512 834zM512 622.5c130.5 0 238.5-108 238.5-238.5s-108-238.5-238.5-238.5-238.5 108-238.5 238.5S381.5 622.5 512 622.5z"  horiz-adv-x="1024" />
      
      <glyph glyph-name="youjiantou" unicode="&#58883;" d="M510.247-63.053c238.62699999 0 432.77 196.19999999 432.77 437.351 0 241.153-194.143 437.353-432.77 437.353-238.62699999 0-432.772-196.202-432.772-437.35300001 0-241.15 194.143-437.351 432.772-437.35099999z m0 820.035c208.804 0 378.675-171.665 378.675-382.684 0-211.013-169.871-382.68-378.675-382.68S131.57 163.28499999999997 131.57 374.298c0 211.02000001 169.871 382.684 378.677 382.684z m-216.385-410.01700001L661.334 346.96500000000003 545.218 229.62c-10.563-10.677-10.563-27.976 0-38.654a26.849 26.849 0 0 1 38.251 1e-8l162.288 164.00999999c10.567 10.675 10.567 27.975 0 38.651l-162.288 164.012c-5.283 5.33700001-12.205 8.004-19.12399999 8.004-6.924 0-13.841-2.667-19.12700001-8.004-10.563-10.67900001-10.563-27.974 0-38.654l116.116-117.35-367.472 0c-14.953 0-27.047-12.225-27.047-27.336 0-15.107 12.092-27.333 27.047-27.333z"  horiz-adv-x="1024" />
      
      <glyph glyph-name="zhengze" unicode="&#59182;" d="M241.371429 720.457143l-43.885715 65.828571L146.285714 749.714286c-43.885714-29.257143-73.142857-73.142857-73.142857-124.342857v-475.428572c0-58.514286 29.257143-102.4 73.142857-131.657143l58.514286-36.571428 36.571429 65.828571-21.942858 14.628572c-43.885714 29.257143-73.142857 73.142857-73.142857 124.342857V581.485714c0 51.2 29.257143 95.085714 73.142857 124.342857l21.942858 14.628572z m585.142857 65.828571l-36.571429-65.828571 14.628572-14.628572c43.885714-29.257143 73.142857-73.142857 73.142857-124.342857v-394.971428c0-51.2-29.257143-95.085714-73.142857-124.342857l-21.942858-14.628572 36.571429-65.828571 58.514286 36.571428c43.885714 29.257143 73.142857 73.142857 73.142857 124.342857V625.371429c0 51.2-29.257143 95.085714-73.142857 124.342857l-51.2 36.571428zM446.171429 442.514286c7.314286 14.628571 7.314286 29.257143 7.314285 51.2C453.485714 566.857143 424.228571 603.428571 365.714286 603.428571H277.942857v-365.714285h51.2V391.314286H365.714286L409.6 237.714286h58.514286l-58.514286 168.228571c21.942857 7.314286 29.257143 21.942857 36.571429 36.571429z m-43.885715 29.257143c0-7.314286 0-14.628571-7.314285-14.628572 0-7.314286-7.314286-7.314286-14.628572-14.628571h-51.2V552.228571h29.257143c14.628571 0 29.257143-7.314286 36.571429-14.628571 7.314286-7.314286 7.314286-7.314286 7.314285-14.628571v-51.2zM577.828571 164.571429H731.428571v51.2H629.028571V325.485714h87.771429v43.885715H629.028571V479.085714H731.428571V530.285714H577.828571v-365.714285z"  horiz-adv-x="1024" />
      
      <glyph glyph-name="mimasuo" unicode="&#58973;" d="M512 821.333333a202.666667 202.666667 0 0 0 202.581333-196.906666l0.085334-5.76v-106.666667H810.666667a42.666667 42.666667 0 0 0 42.56-39.466667L853.333333 469.333333v-469.333333a42.666667 42.666667 0 0 0-42.666666-42.666667H213.333333a42.666667 42.666667 0 0 0-42.666666 42.666667V469.333333a42.666667 42.666667 0 0 0 42.666666 42.666667h96v106.666667A202.666667 202.666667 0 0 0 512 821.333333zM789.333333 448H234.666667v-426.666667h554.666666V448z m-277.333333-128a85.333333 85.333333 0 1 0 0-170.666667 85.333333 85.333333 0 0 0 0 170.666667z m0 437.333333a138.666667 138.666667 0 0 1-138.581333-133.696L373.333333 618.666667v-106.666667h277.333334v106.666667A138.666667 138.666667 0 0 1 512 757.333333z"  horiz-adv-x="1024" />
      
      <glyph glyph-name="shujuyuan-" unicode="&#59013;" d="M512 733.39098358c-93.39237214 0-181.53190613-10.42842865-248.04210663-29.35409546-30.59005737-8.72898102-55.61828614-19.00291443-72.53551483-29.81758118-17.45796203-11.20090485-20.31612397-19.00291443-20.77960969-21.01135254l-0.38623809-1.6222 0.54073334-1.62220003c1.1587143-3.47614289 5.33008576-10.66017151 20.62511444-20.47061919 16.60823823-10.81466675 41.7137146-21.01135254 72.53551483-29.81758117 66.66469574-18.92566681 154.72698212-29.35409546 248.04210663-29.35409547 93.08338165 0 181.22291565 10.42842865 248.04210664 29.35409547 30.59005737 8.72898102 55.61828614 19.00291443 72.53551482 29.81758117 17.45796203 11.20090485 20.31612397 19.00291443 20.77960969 21.01135254l0.38623809 1.62220002-0.54073334 1.6222c-1.1587143 3.47614289-5.33008576 10.66017151-20.62511444 20.47061921-16.60823823 10.73741914-41.7137146 21.01135254-72.53551483 29.81758117-66.5102005 18.92566681-154.6497345 29.35409546-248.04210663 29.35409546zM170.56552124 477.39237214l0.30899048-0.92697145c1.1587143-3.47614289 5.33008576-10.66017151 20.62511444-20.4706192 16.60823823-10.73741914 41.7137146-21.01135254 72.53551483-29.81758117 66.66469574-18.92566681 154.72698212-29.35409546 248.04210664-29.35409546 93.08338165 0 181.22291565 10.42842865 248.04210662 29.35409546 30.59005737 8.72898102 55.61828614 19.00291443 72.53551484 29.81758117 17.45796203 11.20090485 20.31612397 19.00291443 20.77960967 21.08860016l0.15449524 0.69522858v139.81819153l-9.34696198-6.02531433c-59.09442902-38.08307648-189.41116333-62.5705719-332.08751678-62.5705719s-272.99308777 24.56474304-332.08751679 62.5705719L170.56552124 617.5195541400001v-140.12718201z m0-185.78052522l0.30899048-0.92697143c1.1587143-3.47614289 5.33008576-10.66017151 20.62511444-20.47061921 16.60823823-10.81466675 41.7137146-21.01135254 72.53551483-29.81758117 66.66469574-18.92566681 154.72698212-29.35409546 248.04210664-29.35409545 93.08338165 0 181.22291565 10.42842865 248.04210662 29.35409545 30.59005737 8.72898102 55.61828614 19.00291443 72.53551484 29.81758118 17.45796203 11.20090485 20.31612397 19.00291443 20.77960967 21.08860015l0.15449524 0.61798096V443.94415283l-9.34696198-6.02531433c-59.17167664-38.00582886-189.48841095-62.49332428-332.08751678-62.49332428s-272.99308777 24.56474304-332.08751679 62.49332428L170.56552124 443.94415283v-152.3323059z m0-176.35631562l0.30899048-0.92697142c1.1587143-3.47614289 5.33008576-10.66017151 20.62511444-20.47061921 16.60823823-10.81466675 41.7137146-21.01135254 72.53551483-29.81758117 66.66469574-18.92566681 154.72698212-29.35409546 248.04210664-29.35409546 93.2378769 0 181.37741089 10.42842865 248.04210662 29.27684784 30.59005737 8.72898102 55.61828614 19.00291443 72.53551484 29.81758118 17.45796203 11.20090485 20.31612397 19.00291443 20.77960967 21.08860015l0.15449524 0.69522859V258.24087524000004l-9.34696198-6.02531433c-59.17167664-38.00582886-189.48841095-62.49332428-332.08751678-62.49332428s-272.99308777 24.56474304-332.08751679 62.49332428L170.56552124 258.24087524000004v-142.98534394zM512 13.211425780000013c-217.06581115 0-362.90931701 53.22360993-362.90931701 102.89382935V652.7444687l0.07724762 0.61798094C151.94884491 702.3374405 298.41033172 754.78857422 512 754.78857422c213.20343018 0 359.664917-52.37388611 362.8320694-101.27162934l0.07724761-0.84972381v-536.25297547C874.90931701 66.43503569999996 729.06581115 13.211425780000013 512 13.211425780000013zM512-11.5078125c-192.57831574 0-387.62855529 43.87664795-387.62855529 127.61306763V652.7444687C129.00630188 736.63538361 322.89782714 779.5078125 512 779.5078125c188.56143952 0 382.22122193-42.71793366 387.47406006-124.3686676l0.15449523-538.7248993c0-83.96816254-195.05023957-127.9220581-387.62855529-127.9220581zM195.28475953 121.66708373999995c1.39045716-1.08146667 4.3258667-3.70788575 9.57870482-7.02953339 14.36805725-9.26971435 37.69683838-18.77117157 65.89221956-26.88217162 64.34726716-18.23043823 150.01487732-28.34987641 241.24431609-28.34987641 91.07494355 0 176.81980133 10.04219055 241.32156372 28.3498764 35.76564789 10.11943818 55.54103852 20.16162873 65.89221955 26.88217163 5.02109528 3.16715241 7.87925721 5.63907623 9.50145721 7.26127624V215.98642730999995c-70.29533386-31.82601929-187.17098237-51.06067657-316.71524048-51.06067658-129.62150573 0-246.49715424 19.15740967-316.71524047 51.06067659v-94.31934358z m0 176.35631562c1.39045716-1.08146667 4.3258667-3.70788575 9.57870482-7.02953339 10.04219055-6.48880005 29.66308594-16.37649536 65.89221956-26.88217164 64.5017624-18.23043823 150.16937256-28.34987641 241.24431609-28.3498764 90.84320068 0 176.58805847 10.11943818 241.32156372 28.42712402 35.76564789 10.19668579 55.54103852 20.23887635 65.89221955 26.88217163 4.94384766 3.16715241 7.87925721 5.71632385 9.50145721 7.26127625V401.76695252c-70.29533386-31.82601929-187.17098237-51.06067657-316.71524048-51.06067659-129.62150573 0-246.41990662 19.23465729-316.71524047 51.06067659v-103.74355317z m0 185.7805252c1.39045716-1.1587143 4.40311432-3.70788575 9.57870482-7.10678101 14.36805725-9.26971435 37.69683838-18.77117157 65.89221956-26.88217162 64.34726716-18.23043823 150.01487732-28.34987641 241.24431609-28.34987641 90.99769592 0 176.74255372 10.11943818 241.32156372 28.42712401 35.92014313 10.19668579 55.69553376 20.23887635 65.89221955 26.88217164 5.02109528 3.16715241 7.87925721 5.63907623 9.50145721 7.26127625V575.34235383c-70.29533386-31.90326691-187.09373474-51.13792419-316.71524048-51.13792421s-246.41990662 19.23465729-316.71524047 51.06067658v-91.46118164z m7.106781 168.09082031c0.7724762-0.46348572 1.54495239-1.00421906 2.39467621-1.62220001 14.36805725-9.26971435 37.69683838-18.77117157 65.89221954-26.88217163 64.34726716-18.23043823 150.01487732-28.34987641 241.2443161-28.3498764 90.99769592 0 176.74255372 10.11943818 241.32156371 28.42712402 35.92014313 10.19668579 55.69553376 20.23887635 65.89221956 26.80492401 0.84972382 0.61798096 1.62220001 1.08146667 2.39467621 1.62220001-0.69522858 0.46348572-1.54495239 1.00421906-2.31742859 1.5449524-14.36805725 9.34696198-37.774086 18.84841919-65.96946718 26.88217163C688.89704895 698.55230713 603.15219117 708.6717453 512 708.6717453s-176.89704895-10.11943818-241.32156372-28.42712403c-35.76564789-10.19668579-55.61828614-20.23887635-65.89221955-26.88217163-0.84972382-0.46348572-1.62220001-1.00421906-2.3946762-1.46770477z m-8.49723816 7.18402863c-0.07724763 0 0 0 0-1e-8z"  horiz-adv-x="1024" />
      
      <glyph glyph-name="33-javadaima" unicode="&#59274;" d="M262.42 250.73l29.51 21.71c8.39-15.63 19.68-22.29 31.83-22.29 18.81 0 28.65 10.13 28.65 39.65V431.3h42.83v-145c0-40.23-20.26-73.21-66.27-73.21-31.25 0.03-52.09 12.76-66.55 37.64zM547.15 272.15H477.7l-15.05-55h-43.4l68.58 214.15h50.35l68.87-214.13H562.2z m-9.26 33.27l-6.37 23.44c-6.65 22.28-12.44 46.88-18.81 70h-1.15c-5.5-23.44-11.87-47.75-18.23-70L487 305.42zM598.94 431.3h44.85l28.36-104.17c6.66-23.73 11-45.15 17.94-69.16h1.45c6.66 24 11.58 45.43 18.23 69.16l27.78 104.17H781l-65.73-214.13h-50.93zM900.46 272.15H831l-15-55h-43.44l68.58 214.15h50.35l68.87-214.13h-44.85z m-9.26 33.27l-6.37 23.44c-6.65 22.28-12.44 46.88-18.8 70h-1.16c-5.5-23.44-11.87-47.75-18.23-70l-6.37-23.44zM860 128.2a35.94 35.94 0 0 1-35.7-40.57h-0.3V8H200V504h184a72 72 0 0 1 72 72V760h368v-211.79a36 36 0 0 1 36-36 36 36 0 0 1 36 36V760a72 72 0 0 1-72 72H413.82a72 72 0 0 1-50.91-21.09L149.09 597.09A72 72 0 0 1 128 546.18V8a72 72 0 0 1 72-72h624a72 72 0 0 1 72 72v79.63h-0.3A35.94 35.94 0 0 1 860 128.2z m-476 602V576H229.82z"  horiz-adv-x="1024" />
      
      <glyph glyph-name="caozuo-zifuchuantihuan" unicode="&#59158;" d="M429.856 248.704l51.264-51.264H362.24a90.784 90.784 0 0 0-90.688 90.688v16.736H221.664v-16.736a140.704 140.704 0 0 1 140.544-140.544h118.912l-51.264-51.264 35.264-35.264 111.456 111.456-111.456 111.488-35.264-35.296zM892.832 203.2c36.384 13.6 46.88 37.024 46.88 68.48v47.456c0 54.272-32.096 83.264-96.8 83.264h-158.496v-410.688h167.104c61.664 0 101.76 30.848 101.76 88.192v49.312c-0.032 43.808-24.672 67.84-60.448 74.016z m-155.424 153.6h102.4c32.064 0 46.848-12.352 46.848-38.848v-46.272c0-29.6-15.456-48.096-55.52-48.096h-93.728v133.184z m162.816-272.608c0-30.816-18.496-46.848-56.128-46.848h-106.688V177.92h103.616c40.704 0 59.2-17.92 59.2-50.56v-43.168zM366.08 365.6h53.664L280.992 776.288H209.504L70.72 365.6h53.664l33.312 98.656h174.496l33.92-98.656z m-194.24 144.896l73.408 227.52 73.344-227.52H171.872z"  horiz-adv-x="1024" />
      
      <glyph glyph-name="lianjieduankai" unicode="&#58972;" d="M832.64 704.64a216.192 216.192 0 0 1-306.048 0L429.696 607.616l51.008-51.008 96.896 96.896c53.76 53.824 144.64 59.52 204.032 0 59.52-59.52 53.76-150.144 0-203.968l-96.96-96.896 51.136-51.072 96.896 96.896a216.576 216.576 0 0 1-0.128 306.048z m-386.112-590.272c-53.824-53.76-144.64-59.52-204.032 0a143.616 143.616 0 0 0 0 204.032l96.896 96.896-51.072 51.072L191.36 369.536a216.192 216.192 0 0 1 0-305.92 216.32 216.32 0 0 1 305.92 0l96.96 96.832-51.008 51.008-96.768-97.024z m-186.24 572.224a8 8 0 0 1-11.264 0l-39.68-39.616a8 8 0 0 1 0-11.264l554.432-554.432a8 8 0 0 1 11.328 0l39.616 39.68a8 8 0 0 1 0 11.264L260.288 686.592z"  horiz-adv-x="1024" />
      
      <glyph glyph-name="lianjieqi" unicode="&#58905;" d="M859.42647073 805.875l0.02481565-63.67830853A186.14614004 186.14614004 0 0 0 834.61029432 371.59191138000006a37.22426504 37.22426504 0 0 0 0 74.44853008 111.67279432 111.67279432 0 0 1 24.84099206 220.56617643L859.42647073 607.34558862l-99.26470569 99.2647057 99.26470569 99.26470568zM288.65441138 396.40808862a37.22426504 37.22426504 0 0 0 0-74.44853008 111.67279432 111.67279432 0 0 1-24.81617642-220.59099207V160.65441138000006l99.26470651-99.2647057-99.26470651-99.26470568v63.67830853A186.14614004 186.14614004 0 0 0 288.65441138 396.40808862zM487.18382358 805.875h148.89705853a99.26470568 99.26470568 0 1 0 0-198.52941138h-148.89705853a99.26470568 99.26470568 0 1 0 0 198.52941138z m0-322.61029432h148.89705853a99.26470568 99.26470568 0 1 0 0-198.52941136h-148.89705853a99.26470568 99.26470568 0 1 0 0 198.52941136z m0-322.6102943h148.89705853a99.26470568 99.26470568 0 1 0 0-198.52941138h-148.89705853a99.26470568 99.26470568 0 1 0 0 198.52941138z"  horiz-adv-x="1144" />
      
      <glyph glyph-name="shanchu" unicode="&#58906;" d="M512 12.799999999999955A371.2 371.2 0 1 1 140.8 384 371.2 371.2 0 0 1 512 12.799999999999955z m0-64a435.2 435.2 0 1 0 435.2 435.2 435.2 435.2 0 0 0-435.2-435.2zM551.6 384l107.55-107.55a27.9 27.9 0 1 0-39.6-39.6L512 344.4l-107.55-107.55a27.9 27.9 0 1 0-39.6 39.6L472.4 384 364.85 491.55a27.9 27.9 0 1 0 39.6 39.6L512 423.6l107.55 107.55a27.9 27.9 0 1 0 39.6-39.6z"  horiz-adv-x="1024" />
      
      <glyph glyph-name="tianjia" unicode="&#58971;" d="M923.86 558c-22.52 53.23-54.74 101.03-95.78 142.07-41.04 41.04-88.84 73.27-142.08 95.78C630.87 819.18 572.33 831 512 831s-118.87-11.82-174-35.14c-53.23-22.52-101.03-54.74-142.07-95.78-41.04-41.04-73.27-88.84-95.78-142.07C76.82 502.87 65 444.33 65 384c0-60.33 11.82-118.87 35.14-174 22.52-53.23 54.74-101.03 95.78-142.08 41.04-41.04 88.84-73.27 142.07-95.78C393.13-51.18 451.67-63 512-63c60.33 0 118.87 11.82 174 35.14 53.23 22.52 101.03 54.74 142.08 95.78 41.04 41.04 73.27 88.84 95.78 142.08C947.18 265.13 959 323.67 959 384s-11.82 118.87-35.14 174zM512 1c-211.19 0-383 171.81-383 383s171.81 383 383 383 383-171.81 383-383-171.81-383-383-383zM680 416H544V552c0 17.67-14.33 32-32 32s-32-14.33-32-32v-136H344c-17.67 0-32-14.33-32-32s14.33-32 32-32h136v-136c0-17.67 14.33-32 32-32s32 14.33 32 32V352h136c17.67 0 32 14.33 32 32s-14.33 32-32 32z"  horiz-adv-x="1024" />
      
      <glyph glyph-name="charu" unicode="&#58970;" d="M1133.46726152 299.22321433l-216.62946386 175.98214297 216.62946386 146.6517854v-322.63392837zM111.45833333 805.875v-241.07142893h803.57142837V805.875z m206.38392874-187.50000037h-147.32142874v133.92857181h147.32142874z m322.63392837 0H386.01190459v133.92857181h254.46428586z m215.49107126 0h-147.32142874v133.92857181h147.32142874zM111.45833333 393.10714252v-241.0714281h803.57142837v241.0714281z m206.38392874-187.49999955h-147.32142874v133.928571h147.32142874z m322.63392837 1e-8H386.01190459v133.92857099h254.46428586z m215.49107126 0h-147.32142874v133.92857099h147.32142874zM111.45833333 203.19642893000002v-241.07142893h803.57142837V203.19642893000002z m206.38392874-187.50000037h-147.32142874v133.92857181h147.32142874z m322.63392837 0H386.01190459v133.92857181h254.46428586z m215.49107126 0h-147.32142874v133.92857181h147.32142874z"  horiz-adv-x="1240" />
      
      <glyph glyph-name="xieyuanguanxi" unicode="&#58969;" d="M791.30324 526.3c-5-5-6.2-12.7-2.8-18.9 17.5-31.9 27.4-68.5 27.4-107.4 0-56.2-20.7-107.6-54.9-147-4.5-5.1-5.1-12.6-1.8-18.4l39.2-67.9c3.3-5.7 9.6-8.7 16.1-7.8 6 0.8 12.1 1.2 18.3 1.2 70.1-0.5 128-59.7 127.1-129.7-0.9-69.7-57.4-125.9-127.1-126.4-70.9-0.5-128.9 57.1-128.9 128 0 38.1 16.7 72.3 43.1 95.8l-37 64c-4.2 7.3-13.3 10-20.9 6.4-29.3-14.2-62.3-22.2-97.2-22.2-26.7 0-52.3 4.7-76 13.2-7.3 2.6-15.4-0.3-19.3-7l-24.9-43.1c-3.1-5.4-2.8-12.1 0.8-17.2 15-21.2 23.7-47.1 23.5-75.1-0.7-69.5-57.5-126.2-127-126.8-71.6-0.6-129.8 57.7-129.1 129.4 0.8 69.7 58 126.5 127.8 126.6 12 0 23.7-1.6 34.8-4.7 7-2 14.5 1.1 18.2 7.4l21.7 37.6c3.7 6.4 2.5 14.6-2.9 19.6-33.6 31.2-57.5 72.6-67 119.2-1.5 7.5-8 12.9-15.7 12.9h-92c-6.9 0-13.1-4.5-15.2-11.1-16.8-51.1-64.9-87.9-121.6-87.9-71 0-128.5 57.8-128 128.9 0.4 70.6 58.6 127.8 129.2 127.1 54.2-0.5 100.4-34.8 118.5-82.8 2.3-6.2 8.3-10.2 14.9-10.2h94.1c7.6 0 14.2 5.3 15.7 12.7 11 54.2 41.5 101.3 84 133.6 6.4 4.9 8.2 13.8 4.2 20.8l-2.2 3.8c-3.5 6-10.3 9-17.1 7.7-8.8-1.8-18-2.7-27.4-2.5-69.5 1-126.9 60.1-126 129.6 0.9 70.3 58.4 126.9 129 126.3 69.3-0.6 126-57 127-126.2 0.4-31.6-10.6-60.7-29.3-83.2-4.3-5.2-5-12.5-1.6-18.3l6.6-11.4c3.6-6.2 10.8-9.3 17.7-7.5 17.5 4.4 35.8 6.7 54.6 6.7 52.3 0 100.4-17.9 138.6-48 6.4-5 15.5-4.5 21.2 1.2l24.2 24.2c4.7 4.7 6 11.8 3.3 17.8-7.3 16.1-11.3 34-11.3 52.8 0 70.7 57.3 128 128 128 70.6 0 128-57.4 128-128 0-70.7-57.3-128-128-128-20.7 0-40.2 4.9-57.5 13.6-6.2 3.1-13.7 2-18.7-2.9l-28.4-28.5z"  horiz-adv-x="1024" />
      
      <glyph glyph-name="jinzhi" unicode="&#59340;" d="M170.666667 663.04L228.906667 725.333333 853.333333 147.62666699 795.093333 85.33333300000004zM981.333333 384C981.333333 124.80000000999996 771.19999999-85.33333300000004 512-85.33333300000004S42.666667 124.80000000999996 42.666667 384s210.133333 469.333333 469.333333 469.333333 469.333333-210.133333 469.333333-469.333333z m-85.33333299 0a384 384 0 1 1-768.00000002 0 384 384 0 0 1 768.00000002 0z"  horiz-adv-x="1024" />
      
      <glyph glyph-name="shujukushanchu" unicode="&#58882;" d="M439.466667 437.333333c108.8-4.266667 215.466667 27.733333 305.066666 89.6v-72.533333h51.2v168.533333C793.6 725.333333 635.733333 810.666667 439.466667 810.666667S85.333333 725.333333 85.333333 622.933333v-505.6c0-87.466667 157.866667-160 354.133334-160v53.333334c-168.533333 0-302.933333 46.933333-302.933334 106.666666v76.8c76.8-49.066667 164.266667-74.666667 253.866667-76.8V170.66666699999996c-145.066667 8.533333-253.866667 51.2-253.866667 104.533333v78.933333c76.8-49.066667 164.266667-74.666667 253.866667-76.8v53.333334c-145.066667 10.666667-253.866667 53.333333-253.866667 106.666666v89.6c61.866667-53.333333 174.933333-89.6 302.933334-89.6z m0 320c166.4 0 305.066667-59.733333 305.066666-134.4S608 490.666667 439.466667 490.666667 136.533333 550.4 136.533333 622.933333c0 72.533333 136.533333 134.4 302.933334 134.4zM883.2 311.46666700000003c-42.666667 44.8-102.4 68.266667-164.266667 68.266666-61.866667 0-119.466667-23.466667-164.266666-68.266666-91.733333-91.733333-91.733333-238.933333 0-330.666667 44.8-44.8 104.533333-68.266667 166.4-68.266667 61.866667 0 119.466667 23.466667 164.266666 68.266667 91.733333 89.6 91.733333 238.933333-2.133333 330.666667z m-36.266667-292.266667c-34.133333-34.133333-78.933333-53.333333-128-53.333333s-93.866667 19.2-128 53.333333a178.986667 178.986667 0 0 0 0 253.866667c34.133333 34.133333 78.933333 53.333333 128 53.333333s93.866667-19.2 128-53.333333c70.4-70.4 70.4-183.466667 0-253.866667zM812.8 236.79999999999995c-10.666667 10.666667-27.733333 10.666667-38.4 0l-53.333333-53.333333-53.333334 53.333333c-10.666667 10.666667-27.733333 10.666667-38.4 0s-10.666667-27.733333 0-38.4l53.333334-53.333333-53.333334-53.333334c-10.666667-10.666667-10.666667-27.733333 0-38.4s27.733333-10.666667 38.4 0l53.333334 53.333334 53.333333-53.333334c10.666667-10.666667 27.733333-10.666667 38.4 0s10.666667 27.733333 0 38.4l-53.333333 53.333334 53.333333 53.333333c10.666667 10.666667 10.666667 27.733333 0 38.4z"  horiz-adv-x="1024" />
      
      <glyph glyph-name="shouqi1" unicode="&#58966;" d="M667.008 194.144c7.072 0 12.8-5.76 12.8-12.8v-42.688a12.8 12.8 0 0 0-12.8-12.8H172.8a12.8 12.8 0 0 0-12.8 12.8v42.688c0 7.04 5.76 12.8 12.8 12.8h494.208zM849.6 569.088a12.8 12.8 0 0 0 3.744-9.056v-322.208a12.8 12.8 0 0 0-21.856-9.024l-147.52 147.52a32 32 0 0 0 0 45.248l147.52 147.52a12.8 12.8 0 0 0 18.112 0z m-267.2-136c7.04 0 12.8-5.76 12.8-12.8V377.6a12.8 12.8 0 0 0-12.8-12.8H172.8a12.8 12.8 0 0 0-12.8 12.8v42.656c0 7.072 5.76 12.8 12.8 12.8h409.6zM667.008 672c7.072 0 12.8-5.76 12.8-12.8v-42.656a12.8 12.8 0 0 0-12.8-12.8H172.8a12.8 12.8 0 0 0-12.8 12.8V659.2c0 7.04 5.76 12.8 12.8 12.8h494.208z"  horiz-adv-x="1024" />
      
      <glyph glyph-name="zhankai" unicode="&#58968;" d="M345.6 604.8c-6.4 0-12.8 6.4-12.8 12.8V659.2c0 6.4 6.4 12.8 12.8 12.8h492.8c6.4 0 12.8-6.4 12.8-12.8v-41.6c0-6.4-6.4-12.8-12.8-12.8H345.6zM163.2 227.2c-3.2 3.2-3.2 6.4-3.2 9.6V560c0 6.4 6.4 12.8 12.8 12.8 3.2 0 6.4 0 9.6-3.2l147.2-147.2c12.8-12.8 12.8-32 0-44.8l-147.2-147.2c-6.4-6.4-12.8-6.4-19.2-3.2z m268.8 137.6c-6.4 0-12.8 6.4-12.8 12.8v41.6c0 6.4 6.4 12.8 12.8 12.8h409.6c6.4 0 12.8-6.4 12.8-12.8v-41.6c0-6.4-6.4-12.8-12.8-12.8H432z m-86.4-240c-6.4 0-12.8 6.4-12.8 12.8v41.6c0 6.4 6.4 12.8 12.8 12.8h492.8c6.4 0 12.8-6.4 12.8-12.8v-41.6c0-6.4-6.4-12.8-12.8-12.8H345.6z"  horiz-adv-x="1024" />
      
      <glyph glyph-name="xiangzuotubiao" unicode="&#58965;" d="M768 553.6c-70.4 0-140.8 28.8-192 80l-22.4 22.4c-22.4 22.4-60.8 22.4-86.4 0s-22.4-60.8 0-86.4l118.4-118.4H156.8c-32 0-60.8-25.6-60.8-60.8s25.6-60.8 60.8-60.8h240c-32 0-60.8-25.6-60.8-60.8s25.6-60.8 60.8-60.8H448c-32 0-60.8-25.6-60.8-60.8s25.6-60.8 60.8-60.8h51.2c-32 0-60.8-25.6-60.8-60.8s25.6-60.8 60.8-60.8H768c99.2 0 179.2 80 179.2 179.2v230.4c0 99.2-80 179.2-179.2 179.2z"  horiz-adv-x="1024" />
      
      <glyph glyph-name="mianxingxiangzuotubiao" unicode="&#58964;" d="M769.28 553.79c-71.77 0-140.59 28.51-191.34 79.26l-20.84 20.84c-23.62 23.62-61.91 23.62-85.53 0-23.62-23.62-23.62-61.91 0-85.53l117.65-117.65H157.35c-33.4 0-60.48-27.08-60.48-60.48s27.08-60.48 60.48-60.48h240.5c-33.4 0-60.48-27.08-60.48-60.48s27.08-60.48 60.48-60.48h51.88c-33.4 0-60.48-27.08-60.48-60.48s27.08-60.48 60.48-60.48h49.62c-33.4 0-60.48-27.08-60.48-60.48s27.08-60.48 60.48-60.48h269.94c98.34 0 178.05 79.72 178.05 178.05V375.74c-0.01 98.33-79.72 178.05-178.06 178.05z m-638.55 36.37c4.64 0 9.3 1.61 13.08 4.88 8.35 7.23 9.26 19.86 2.03 28.21l-54.72 63.19h292.73c11.05 0 20 8.95 20 20s-8.95 20-20 20H91.12l54.72 63.18c7.23 8.35 6.32 20.98-2.03 28.21s-20.98 6.32-28.21-2.03l-83.38-96.28c-6.51-7.52-6.51-18.67 0-26.19l83.38-96.28a20.01 20.01 0 0 1 15.13-6.89z"  horiz-adv-x="1024" />
      
      <glyph glyph-name="shezhi" unicode="&#58963;" d="M1004.31757812 476.96542969c-5.56435547 29.4046875-23.52128906 48.40400391-45.74443359 48.4040039-0.28476563 0-0.57304687-0.00263672-0.72949219-0.00878906h-4.0921875c-64.27001953 0-116.55878906 52.28876953-116.55878906 116.55966797 0 20.85732422 10.06083984 44.240625 10.14785156 44.44277344 11.5171875 25.92597656 2.65693359 57.71953125-20.59101562 73.93974609l-1.40800781 0.99052735-118.125 65.62089843-1.49414063 0.65478516c-7.69394531 3.34511719-16.11474609 5.04052734-25.03125 5.04052734-18.27158203 0-36.24169922-7.33359375-48.06123047-19.60488281-12.95683594-13.3734375-57.67646484-51.54785156-92.0399414-51.54785156-34.67285156 0-79.65878906 38.92412109-92.6709961 52.54541015C436.03701172 826.52402344 417.92363281 834 399.46748047 834c-8.74160156 0-17.01035156-1.63652344-24.57333984-4.86210938l-1.53457032-0.65039062-122.29277344-67.1765625-1.44404296-1.00195313c-23.32441406-16.20527344-32.23476563-47.96982422-20.72900391-73.88261718 0.10107422-0.23291016 10.17773438-23.48876953 10.17773438-44.50341797 0-64.27089844-52.28789063-116.55878906-116.55966797-116.55878906h-4.02626954c-0.28125 0.00527344-0.55898437 0.00878906-0.83671875 0.00878906-22.20117188 0-40.14228516-19.00019531-45.70576171-48.41015625C71.53701172 474.80595703 62 423.68085938 62 383.69501952999997c0-39.98496094 9.53701172-91.10742188 9.94482422-93.26953125 5.56699219-29.40644531 23.51865234-48.40664063 45.73476562-48.40664062 0.28125 0 0.57304687 0.00527344 0.74091797 0.01054687h4.0913086c64.27177734 0 116.55966797-52.28789063 116.55966797-116.55791016 0-20.8828125-10.05908203-44.23798828-10.14785157-44.44189453-11.50839844-25.90488281-2.67363281-57.69667969 20.56201172-73.96171875l1.37988281-0.96064453 115.87324219-64.79912109 1.47304688-0.64863281c7.69042969-3.37763672 16.08837891-5.08886719 24.95830078-5.08886719 18.52998047 0 36.63017578 7.65087891 48.41894531 20.46972656 16.45664063 17.88398438 61.10683594 54.81123047 94.08427734 54.81123047 35.70644531 0 81.49746094-41.39648438 94.7109375-55.884375 11.81425781-13.03505859 30.0375-20.82128906 48.75292969-20.8265625h0.00615234c8.69677734 0 16.94443359 1.65498047 24.51621094 4.92011719l1.5038086 0.65039062 120.11132812 66.38466797 1.4203125 0.99316406c23.28486328 16.22109375 32.16972656 47.98828125 20.68945313 73.8413086-0.10195313 0.23554687-10.19179687 23.80341797-10.19179688 44.54033203 0 64.27001953 52.28876953 116.55703125 116.55878906 116.55703125l3.97001953 0.00175781c0.26367188-0.00527344 0.52734375-0.00878906 0.79101563-0.00878906 22.26269531 0.00175781 40.24072266 19.00195313 45.79716797 48.3890625 0.0984375 0.51855469 9.95361328 52.30107422 9.95361328 93.28710937 0 40.16953125-9.53964844 91.11708984-9.94570313 93.26865235z m-610.54189453-474.10839844l-101.3625 56.67890625c4.46660156 11.47148437 13.56855469 38.24824219 13.56855469 65.93291016 0 96.13740234-73.9828125 175.62041016-169.26591797 182.93115234-2.32734375 13.55888672-7.79941406 48.31083984-7.79941406 75.29326172 0 26.94462891 5.46943359 61.72822266 7.79501953 75.29765625 95.2875 7.30546875 169.2703125 86.78759766 169.2703125 182.93027344 0 27.61259766-9.05273438 54.31464844-13.51054687 65.79052734l107.86113281 59.24091797 0.00703125-0.00087891c3.88740234-3.97265625 19.44228516-19.40625 40.92011719-34.71152344 35.09472656-25.01630859 68.51337891-37.70068359 99.32871093-37.70068359 30.51298828 0 63.66621094 12.43828125 98.53857422 36.9703125 21.34248047 15.01171875 36.82353516 30.14912109 40.70214844 34.05410156l0.02197266 0.00527344 103.97636718-57.76699219c-4.46308594-11.47412109-13.54921875-38.23242188-13.54921875-65.88193359 0-96.14355469 73.98193359-175.62568359 169.26855469-182.93115234 2.32558594-13.58964844 7.79853516-48.43388672 7.79853516-75.29677735 0-26.971875-5.4703125-61.73613281-7.79589844-75.29941406-95.28574219-7.30371094-169.2703125-86.78671875-169.2703125-182.93027344 0-27.64160156 9.06767578-54.36210937 13.52900391-65.83359375L678.52988281 1.4472656200000529c-4.5421875 4.82519531-19.86679687 20.53388672-41.08007812 36.28828126-35.77236328 26.5640625-70.01542969 40.03417969-101.77734375 40.03417968-31.4578125 0-65.44248047-13.21875-101.0100586-39.28271484-20.90654297-15.32548828-36.33398438-30.88212891-40.88671875-35.62910156z m310.94384766 381.45410156c0 92.99091797-75.65800781 168.64453125-168.6515625 168.64453125-92.99179687 0-168.64541016-75.65361328-168.64541016-168.64453125 0-92.99179687 75.65361328-168.64716797 168.64453125-168.64716797 92.99619141 0 168.65244141 75.65537109 168.65244141 168.64628907zM536.06796875 486.0375c56.09619141 0 101.73339844-45.63544922 101.73339844-101.728125 0-56.09619141-45.63720703-101.73339844-101.73339844-101.73339844-56.09355469 0-101.728125 45.63720703-101.728125 101.73339844 0 56.09443359 45.63457031 101.728125 101.728125 101.728125z"  horiz-adv-x="1084" />
      
      <glyph glyph-name="geren" unicode="&#58904;" d="M947.477355 0.510547 76.524542 0.510547c-8.144418 0-15.756092 4.036936-20.325772 10.778947-4.566031 6.737146-5.49286 15.303624-2.475193 22.869078 53.321854 133.621485 163.484351 241.537455 294.128307 291.195781-54.120971 47.052988-86.240093 115.797665-86.240093 189.028096 0 138.065885 112.323881 250.389766 250.389766 250.389766s250.387333-112.323881 250.387333-250.389766c0-73.230432-32.11669-141.975108-86.237661-189.028096 130.64274-49.658326 240.80402-157.574296 294.12709-291.195781 3.017667-7.565454 2.085973-16.131932-2.480058-22.869078C963.232231 4.547482 955.618124 0.510547 947.477355 0.510547L947.477355 0.510547zM114.353028 49.609369l795.290976 0c-59.168661 119.317669-169.024647 211.144278-294.082087 243.633159-9.70981 2.522629-16.903073 10.699887-18.177767 20.648094-1.268612 9.95064 3.639202 19.67018 12.40029 24.554885 63.847809 35.572229 103.505627 102.987478 103.505627 175.936942 0 110.993237-90.295274 201.294592-201.28851 201.294592-110.998102 0-201.294592-90.301355-201.294592-201.294592 0-72.949464 39.657818-140.364713 103.50441-175.936942 8.762304-4.885921 13.674984-14.605462 12.401506-24.554885-1.273478-9.948207-8.46674-18.124249-18.178983-20.648094C283.377675 260.753647 173.520473 168.927038 114.353028 49.609369L114.353028 49.609369zM114.353028 49.609369"  horiz-adv-x="1024" />
      
      <glyph glyph-name="xiugaimima" unicode="&#58881;" d="M807.286 502.035h-59.057v78.729c0 130.193-105.964 236.099-236.229 236.099s-236.229-105.906-236.229-236.099v-78.729h-59.057c-32.617 0-59.057-26.426-59.057-59.025l0-432.848c0-32.598 26.441-59.025 59.057-59.025h590.573c32.617 0 59.057 26.426 59.057 59.025l-0 432.849c0 32.598-26.44 59.024-59.057 59.024zM334.828 580.764c0 97.645 79.473 177.075 177.172 177.075s177.172-79.43 177.172-177.075v-78.729h-354.344v78.729zM807.286 10.162h-590.573v432.849h590.573l-0-432.849zM512 118.364c16.302 0 29.529 13.219 29.529 29.512v157.4c0 16.293-13.226 29.512-29.529 29.512s-29.529-13.219-29.529-29.512v-157.4c0-16.293 13.226-29.512 29.529-29.512z"  horiz-adv-x="1024" />
      
      <glyph glyph-name="xiangzuo" unicode="&#58962;" d="M711.392-20.48l-389.76 370.56a47.104 47.104 0 0 0-3.392 64.256l3.392 3.552L711.36 788.48a3.2 3.2 0 0 0 5.408-2.304v-86.4a6.4 6.4 0 0 0-1.984-4.608L387.616 384l327.2-311.136a6.4 6.4 0 0 0 1.984-4.64v-86.4a3.2 3.2 0 0 0-5.408-2.304z"  horiz-adv-x="1024" />
      
      <glyph glyph-name="xiangshang" unicode="&#60977;" d="M107.52 184.60799999999995l370.56 389.76a47.104 47.104 0 0 0 64.256 3.392l3.552-3.392L916.48 184.64a3.2 3.2 0 0 0-2.304-5.408l-86.39999999 0a6.4 6.4 0 0 0-4.60800001 1.984L512 508.384l-311.136-327.2a6.4 6.4 0 0 0-4.64-1.984l-86.4 0a3.2 3.2 0 0 0-2.304 5.408z"  horiz-adv-x="1024" />
      
      <glyph glyph-name="xiangxia" unicode="&#60978;" d="M916.48 583.392l-370.56-389.76a47.104 47.104 0 0 0-64.256-3.392l-3.552 3.392L107.52 583.36a3.2 3.2 0 0 0 2.304 5.408l86.39999999 0a6.4 6.4 0 0 0 4.60800001-1.984L512 259.616l311.136 327.2a6.4 6.4 0 0 0 4.64 1.984l86.4 0a3.2 3.2 0 0 0 2.304-5.408z"  horiz-adv-x="1024" />
      
      <glyph glyph-name="xiangyou" unicode="&#58960;" d="M312.608-20.48l389.76 370.56a47.104 47.104 0 0 1 3.392 64.256l-3.392 3.552L312.64 788.48a3.2 3.2 0 0 1-5.408-2.304v-86.4a6.4 6.4 0 0 1 1.984-4.608L636.384 384 309.184 72.896a6.4 6.4 0 0 1-1.984-4.64v-86.4a3.2 3.2 0 0 1 5.408-2.304z"  horiz-adv-x="1024" />
      
      <glyph glyph-name="zhongzhimima" unicode="&#58910;" d="M721.7822876 743.56274414c-92.73834229 53.81542969-206.05133057 72.14144898-317.80123901 42.19738769C181.12228393 726.04586792 48.86859131 496.97515869 108.58203125 274.11721802c59.71508789-222.85876465 288.78579712-355.11245727 511.64373779-295.39819336 222.85794068 59.71508789 355.11245727 288.78579712 295.39736939 511.64373779-0.17385864 0.65011597-0.34936523 1.29940796-0.52651978 1.947052h-51.50253295a374.7321167 374.7321167 0 0 0 4.27560424-14.74255371c52.64785766-196.48498536-63.95526123-398.44610596-260.4394226-451.09396362-196.48498536-52.64785766-398.44610596 63.95443726-451.09396363 260.4394226-52.64785766 196.48498536 63.95443726 398.44610596 260.43942261 451.09313966 98.56384278 26.41085815 198.50537109 10.23046875 280.28649902-37.25765992l-34.92251587-60.48715209 179.34631348 5.76535034L756.80615234 804.22705078l-35.02468872-60.66430664zM454.32177734 437.55834961h115.35644532v57.67822266c0 31.8548584-25.82336426 57.67822266-57.67822266 57.67822265s-57.67822266-25.82336426-57.67822266-57.67822265v-57.67822266z m36.25488282-153.26916504V215.90917968999997h42.84667968v68.38000488c21.24700927 8.50424195 36.25488281 29.28405762 36.25488282 53.5682373 0 31.8548584-25.82336426 57.67822266-57.67822266 57.67822266s-57.67822266-25.82336426-57.67822266-57.67822266c0-24.28417969 15.00787354-45.06317138 36.25488282-53.5682373zM411.47509766 437.55834961v57.67822266c0 55.51858521 45.00631714 100.52490234 100.52490234 100.52490234 55.51858521 0 100.52490234-45.00631714 100.52490234-100.52490234v-57.67822266h30.48706055c15.47259521 0 28.01513672-12.54254151 28.01513672-28.01513672v-207.64160156c0-15.47259521-12.54254151-28.01513672-28.01513672-28.01513672H380.98803711c-15.47259521 0-28.01513672 12.54254151-28.01513672 28.01513672V409.54321289c0 15.47259521 12.54254151 28.01513672 28.01513672 28.01513672h30.48706055z"  horiz-adv-x="1024" />
      
      <glyph glyph-name="baocun" unicode="&#59058;" d="M1013.3 672.8l-148.7 148.5c-6.8 6.8-16 10.8-26.2 10.8-7.4 0-32.9 0-70.3 0L256 832.1c-83.7 0-145 0-154.3 0l-1 0c-20.4 0-36.7-16.3-36.7-36.7l0-885.6 0-0.8c0-20.4 16.3-36.9 36.7-36.9l117.9 0 0.8 0 648.3 0 1 0 0.8 0L986-127.9l1.1 0c20.7 0 36.9 16.5 36.9 36.9l0 736.6 0 0.5C1024 655.8 1020.9 665 1013.3 672.8zM704 768l0-256L320 512l0 256L704 768zM320-64l0 320 448 0 0-320L320-64zM960-64l-90.6 0-0.8 0-1 0L832-64 832 272.8c0 26.8-21.1 47.3-47.2 47.3L303.2 320.1c-25.9 0-47.2-20.4-47.2-47.3l0-336.7-36.7 0-0.8 0L128-63.9l0 832 128 0L256 495.3c0-26.8 21.4-47.3 47.2-47.3l417.5 0c26.2 0 47.2 20.4 47.2 47.3l0 272.7 59.3 0L960 635.6 960-64zM672 192 416 192c-17.7 0-32-14.3-32-32s14.3-32 32-32l256 0c17.7 0 32 14.3 32 32S689.7 192 672 192zM672 64 416 64c-17.7 0-32-14.3-32-32s14.3-32 32-32l256 0c17.7 0 32 14.3 32 32S689.7 64 672 64z"  horiz-adv-x="1024" />
      
      <glyph glyph-name="SQLServer" unicode="&#58980;" d="M215.846 224.34299999999996c54.004 35.684 107.171 74.018 165.288 102.444 60.464 26.253 120.071 47.82 182.395 70.003 60.822 22.361 122.782 40.591 185.705 56.6 62.935 15.947 126.791 28.496 191.238 37.383l-9.76-19.962c-14.888 24.35-34.334 45.821-56.344 64.332-22.02 18.564-46.653 34.11-72.414 47.6a497.77 497.77 0 0 1-19.584 9.685c-6.597 3.106-13.241 6.132-19.963 9.003a599.898 599.898 0 0 1-20.331 8.266 695.449 695.449 0 0 1-20.608 7.678c-27.652 9.841-55.948 18.185-84.619 25.233-28.659 7.003-57.794 12.756-86.917 16.841-3.636 0.498-7.247 0.97-10.797 1.349l-11.274 1.236a2146.98 2146.98 0 0 0-22.539 2.722c-15.023 1.862-30.02 4.012-44.999 6.311-29.939 4.727-59.814 10.263-89.313 17.815-7.368 1.917-14.71 3.951-22.012 6.155-7.301 2.205-14.569 4.561-21.728 7.285-7.159 2.713-14.259 5.65-21.132 9.179-3.424 1.788-6.796 3.715-10.028 5.926-1.614 1.111-3.196 2.288-4.697 3.616a27.685 27.685 0 0 0-2.167 2.143c-0.347 0.386-0.683 0.79-1.006 1.225a11.139 11.139 0 0 0-0.477 0.691l-0.232 0.388c-0.081 0.149-0.142 0.252-0.271 0.547a1.62 1.62 0 1 0 2.971 1.294c-0.026 0.083 0.031-0.018 0.078-0.066l0.166-0.193c0.121-0.135 0.257-0.276 0.4-0.415 0.286-0.279 0.601-0.555 0.932-0.822a23.997 23.997 0 0 1 2.122-1.519c1.484-0.962 3.066-1.832 4.69-2.633 3.253-1.602 6.669-2.955 10.136-4.177 6.931-2.464 14.076-4.447 21.288-6.168 14.442-3.405 29.1-6.078 43.857-8.208 29.503-4.34 59.261-7.279 89.071-9.662 14.902-1.23 29.833-2.21 44.766-3.183l22.415-1.309 11.216-0.625c3.95-0.212 7.823-0.513 11.665-0.833 15.366-1.279 30.547-3.217 45.704-5.485 15.153-2.25 30.215-5.067 45.224-8.19 29.998-6.318 59.705-14.396 88.786-24.637 7.262-2.579 14.496-5.261 21.674-8.104a633.708 633.708 0 0 0 21.366-9.004c7.068-3.145 14.1-6.396 21.039-9.854a530.944 530.944 0 0 0 20.593-10.872 434.182 434.182 0 0 0 39.592-24.811c12.771-8.993 25.085-18.719 36.728-29.26 23.299-21.032 43.896-45.489 59.789-72.911l10.27-17.718-20.028-2.244c-63.62-7.125-126.857-18.122-189.391-32.393-62.549-14.216-124.444-32.854-185.355-53.341-60.944-20.386-120.986-42.426-179.757-68.681-29.383-13.128-58.455-26.986-87.121-41.661-14.349-7.303-28.602-14.803-42.719-22.554-14.101-7.766-28.14-15.716-41.803-24.169l-0.029-0.018a1.623 1.623 0 0 0-1.749 2.732zM209.963 218.34799999999996c20.688 16.411 40.803 33.515 59.903 51.661 19.143 18.088 37.364 37.122 54.246 57.217 8.426 10.058 16.51 20.385 24.139 31.006 7.608 10.626 14.793 21.563 21.103 32.862a183.354 183.354 0 0 1 4.47 8.515l0.506 1.056 0.557 1.205 0.991 2.27 1.889 4.479a313.186 313.186 0 0 1 3.579 9.053 301.38 301.38 0 0 1 3.343 9.108 325.21 325.21 0 0 1 5.77 18.427c1.738 6.176 3.177 12.413 4.475 18.649a227.377 227.377 0 0 1 3.041 18.802c0.772 6.281 1.302 12.572 1.521 18.859 0.115 3.143 0.151 6.285 0.117 9.42-0.01 3.136-0.095 6.268-0.254 9.392a192.937 192.937 0 0 1-1.856 18.635c-3.512 24.695-11.826 48.505-23.843 70.371-5.981 10.957-12.992 21.366-20.633 31.296-7.681 9.896-16.184 19.212-25.226 27.776a175.341 175.341 0 0 1-6.899 6.159l-1.733 1.436-1.576 1.252c0.077-0.06-0.885 0.679-0.535 0.417l-0.117 0.102-0.233 0.204-0.466 0.407-0.948 0.874-1.88 1.762-3.716 3.564a282.594 282.594 0 0 0-3.577 3.748c-2.395 2.494-4.61 5.203-6.828 7.915-4.306 5.549-8.327 11.507-11.268 18.321-1.43 3.413-2.653 7.043-3.015 10.975-0.187 1.948-0.123 4.001 0.423 5.963 0.294 0.976 0.716 1.918 1.291 2.729 0.559 0.808 1.319 1.497 2.181 1.788-0.704-1.638-0.39-3.185 0.184-4.521 0.554-1.347 1.395-2.552 2.299-3.71 1.866-2.293 4.085-4.373 6.421-6.364 4.685-3.976 9.759-7.672 14.905-11.32 2.526-1.876 5.178-3.629 7.736-5.496 1.294-0.917 2.601-1.824 3.917-2.721l3.889-2.773 3.523-2.455 1.247-0.924 1.1-0.842 2.118-1.674a198.672 198.672 0 0 0 8.03-6.844c10.402-9.296 19.787-19.517 28.375-30.409 8.616-10.868 16.206-22.564 22.811-34.816 6.636-12.24 11.99-25.197 16.188-38.51 4.164-13.33 6.91-27.101 8.338-40.964 2.73-27.772-0.331-55.83-8.101-82.046-1.896-6.572-4.157-13.016-6.587-19.364-2.426-6.352-5.143-12.571-8.058-18.671a308.25 308.25 0 0 0-4.513-9.065 325.117 325.117 0 0 0-4.848-8.863l-2.528-4.382-1.267-2.135-0.513-1.027-0.6-1.157c-1.605-3.046-3.298-5.961-5.037-8.852-6.976-11.521-14.706-22.418-22.84-32.979-8.137-10.557-16.735-20.716-25.658-30.556-35.729-39.361-76.427-73.677-119.473-104.235zM690.811 433.137c-11.202 10.033-23.855 19.852-35.554 29.38-11.68 9.552-23.726 18.717-36.167 27.376-6.239 4.303-12.542 8.533-18.979 12.561a597.859 597.859 0 0 1-19.576 11.684c-26.471 14.997-54.155 28.04-82.668 39.175-28.453 11.315-57.758 20.741-87.595 28.368-29.823 7.76-27.023 23.895 4.021 18.259 31.023-5.783 61.779-13.468 91.98-23.226 30.136-9.932 59.694-21.938 88.283-36.152a624.38 624.38 0 0 0 21.287-11.007c7.038-3.795 14.057-7.649 20.979-11.689 13.88-8.018 27.484-16.59 40.701-25.777 13.191-9.221 25.917-19.161 37.968-29.873a391.554 391.554 0 0 0 17.569-16.581M504.265 685.7280000000001c7.783-20.086 13.193-41.187 16.299-62.71 3.1-21.525 3.785-43.508 1.912-65.352a297.933 297.933 0 0 0-1.9-16.374 214.153 214.153 0 0 0-1.403-8.137 249.382 249.382 0 0 0-1.724-8.121c-2.505-10.788-5.811-21.432-10.021-31.704-4.19-10.278-9.157-20.225-14.752-29.741-5.613-9.508-11.797-18.612-18.305-27.395-6.501-8.792-13.396-17.21-20.378-25.483-7.015-8.273-14.046-16.353-21.409-24.36-14.654-15.997-30.276-31.101-46.621-45.297-16.339-14.21-33.456-27.443-51.069-39.884a713.556 713.556 0 0 0-26.824-18.032 1231.056 1231.056 0 0 0-13.691-8.56c-4.612-2.777-9.218-5.555-13.899-8.215l12.484 10.215c4.177 3.373 8.331 6.772 12.459 10.198a1921.952 1921.952 0 0 1 24.653 20.604c16.29 13.859 32.193 28.084 47.546 42.809a789.044 789.044 0 0 1 44.143 45.921c3.516 3.964 6.976 7.995 10.467 12.047 3.489 4.036 6.954 8.08 10.37 12.151 6.84 8.134 13.449 16.402 19.757 24.824 6.299 8.429 12.219 17.076 17.55 26.025 5.357 8.931 10.134 18.162 14.155 27.707 4.007 9.548 7.361 19.368 9.895 29.436a234.407 234.407 0 0 1 1.772 7.585c0.542 2.582 1.021 4.99 1.513 7.687a294.292 294.292 0 0 1 2.503 15.502c2.848 20.812 3.639 41.967 2.602 63.149-1.024 21.194-3.927 42.38-8.084 63.505zM654.02 657.904c0.518-2.054 0.892-4.13 1.276-6.211 0.327-2.083 0.623-4.175 0.888-6.277 0.492-4.202 0.758-8.433 0.847-12.671a159.8 159.8 0 0 0-1.553-25.397c-0.272-2.107-0.622-4.201-0.985-6.293l-0.568-3.133-0.146-0.783-0.037-0.196-0.048-0.217-0.089-0.377-0.355-1.51c-0.983-4.118-2.055-8.2-3.201-12.268a305.387 305.387 0 0 0-7.876-24.147c-6.003-15.864-13.405-31.254-22.155-45.773-8.718-14.542-18.58-28.298-29.112-41.369a580.201 580.201 0 0 0-16.155-19.239l-8.222-9.268-8.147-9.285c-5.462-6.183-10.864-12.463-16.47-18.629a647.404 647.404 0 0 0-8.477-9.225 474.458 474.458 0 0 0-8.775-9.014 324.52 324.52 0 0 0-38.248-32.636c-6.761-4.911-13.643-9.618-20.685-14.061a599.722 599.722 0 0 0-10.618-6.553c-3.593-2.097-7.168-4.209-10.821-6.199l9.5 8.051a724.68 724.68 0 0 1 9.454 8.048c6.244 5.421 12.45 10.848 18.486 16.427 12.113 11.12 23.596 22.724 34.324 35.011 10.743 12.269 20.933 25.157 31.472 37.996 2.617 3.221 5.307 6.392 7.984 9.578 2.676 3.174 5.42 6.377 8.074 9.454 5.335 6.216 10.599 12.472 15.667 18.857 10.133 12.769 19.664 25.921 28.028 39.733 8.354 13.812 15.638 28.22 21.504 43.251a291.694 291.694 0 0 1 7.984 22.877 337.49 337.49 0 0 1 3.316 11.68l0.398 1.5 0.1 0.375 0.1 0.34 0.219 0.725 0.86 2.906 1.649 5.834c2.136 7.801 4.107 15.67 5.84 23.667a524.034 524.034 0 0 1 2.471 12.092c0.412 2.032 0.794 4.076 1.145 6.13l1.157 6.199zM822.932 605.777c-3.896-19.357-10.441-38.246-19.119-56.222-8.687-17.978-19.675-34.894-32.108-50.501-12.437-15.627-26.202-30.026-40.509-43.656-7.143-6.636-14.486-13.05-22.189-19.208a221.19 221.19 0 0 0-11.889-8.92c-4.093-2.849-8.298-5.586-12.806-7.972 2.541 4.421 5.308 8.567 8.153 12.638 2.847 4.068 5.8 8.029 8.868 11.893 6.117 7.736 12.646 15.163 19.583 22.159 13.807 13.665 27.259 27.554 39.798 42.145 12.549 14.581 24.136 29.908 34.447 46.224a393.993 393.993 0 0 1 14.589 25.138c4.585 8.592 8.915 17.377 13.182 26.282zM345.965 348.18600000000004c33.042 32.345 69.5 61.194 107.723 87.398 38.283 26.148 78.514 49.519 120.168 69.979 41.652 20.465 84.758 37.989 128.859 52.278 44.111 14.228 89.215 25.373 134.961 32.052-44.042-13.988-87.524-28.726-130.216-45.387a1606.714 1606.714 0 0 1-125.675-55.097 1600.647 1600.647 0 0 1-120.477-65.695c-39.289-23.588-77.555-48.94-115.343-75.528zM393.713 451.725a383.308 383.308 0 0 0 14.563 17.172c4.999 5.596 10.141 11.057 15.365 16.442 10.466 10.75 21.354 21.084 32.536 31.091 22.4 19.971 46.024 38.562 70.553 55.831a836.583 836.583 0 0 0 76.195 47.736c13.12 7.242 26.423 14.146 39.945 20.604 6.768 3.216 13.57 6.355 20.448 9.339a446.32 446.32 0 0 0 20.835 8.515 987.665 987.665 0 0 0-18.4-12.902l-18.481-12.625-36.948-24.996c-24.595-16.627-49.021-33.367-73.24-50.387a3321.594 3321.594 0 0 1-71.992-52.044c-11.912-8.828-23.761-17.766-35.621-26.754l-17.811-13.515a1597.439 1597.439 0 0 0-17.947-13.507zM394.681 577.3240000000001c1.843 3.003 3.827 5.863 5.873 8.676 2.037 2.817 4.156 5.553 6.308 8.26 4.318 5.397 8.851 10.586 13.516 15.641 9.362 10.074 19.302 19.556 29.712 28.485a363.39 363.39 0 0 0 32.68 25.008c5.703 3.84 11.517 7.531 17.503 10.982 3.002 1.715 6.025 3.397 9.116 4.987 3.085 1.597 6.214 3.131 9.461 4.503-2.156-2.79-4.425-5.426-6.72-8.021-2.288-2.605-4.634-5.128-6.985-7.641-4.72-5.001-9.559-9.832-14.452-14.583-9.814-9.467-19.885-18.567-30.198-27.384-10.311-8.819-20.847-17.371-31.695-25.625-5.44-4.109-10.947-8.157-16.598-12.07-2.835-1.947-5.68-3.887-8.595-5.762-2.906-1.879-5.851-3.734-8.926-5.456zM377.385 697.624c7.314-10.42 13.067-21.728 18.192-33.278 2.505-5.8 4.857-11.673 6.954-17.642 0.531-1.49 1.042-2.987 1.542-4.489 0.529-1.601 1.014-2.927 1.52-4.539 0.979-3.108 1.859-6.175 2.617-9.317 3.056-12.519 4.389-25.521 3.754-38.388a123.34 123.34 0 0 0-2.46-19.107c-1.343-6.278-3.107-12.454-5.732-18.401-1.064 6.414-1.678 12.653-2.379 18.819a1281.01 1281.01 0 0 1-2.105 18.259c-1.469 12.039-3.251 23.862-5.484 35.695l-1.735 8.858c-0.27 1.405-0.624 3.078-0.93 4.478l-1.037 4.493c-1.406 5.988-2.791 12.004-4.25 18.017-2.814 12.069-5.852 24.104-8.467 36.542zM400.461 477.331c3.467-0.23 6.864-0.806 10.224-1.573 3.365-0.756 6.67-1.755 9.938-2.907 6.52-2.334 12.803-5.438 18.746-9.173 11.894-7.464 22.255-17.681 30.145-29.499 7.903-11.82 13.317-25.195 15.93-38.873 1.309-6.843 1.981-13.755 1.945-20.638-0.039-3.445-0.206-6.874-0.597-10.289-0.379-3.412-0.928-6.805-1.798-10.171-1.359 3.2-2.545 6.363-3.734 9.485l-3.545 9.241c-2.362 6.078-4.739 12.002-7.301 17.747-5.113 11.491-10.798 22.307-17.533 32.398-6.715 10.105-14.476 19.442-23.241 28.313-4.378 4.444-9.038 8.73-13.914 12.995-2.432 2.145-4.94 4.247-7.484 6.394-2.553 2.137-5.163 4.266-7.781 6.55zM213.98 221.37s-101.966-69.187-52.733-141.79c0 0 35.523-62.631 161.722-96.598 0 0 144.272-33.34 219.991-29.601 0 0 9.038 1.869-16.203 6.854 0 0-72.877 10.811-146.453 25.862-51.476 10.532-100.322 31.201-122.46 45.183 0 0-129.315 71.046-68.864 149.258 0 0 20.914 32.032 52.056 54.967M535.012-46.073999999999955s48.847 108.205 75.021 251.542c0 0 17.688 104.204 0 192.57l19.944 7.041s19.941-83.071-3.116-230.147c0 0-20.753-119.558-82.45-220.829M542.96-45.84100000000001s-1.385-0.233-3.722-0.233c-3.706 0-3.725 1.792-3.725 1.792M165.298 139.409s225.6 62.942 291.66 90.364c0 0 127.756 49.232 165.772 87.871v-13.088s-109.256-83.509-222.27-112.177c0 0-131.71-39.884-235.163-59.205v6.235zM224.502 47.797000000000025s129.095 167.642 164.884 266.732l25.194 11.84S384.845 216.65999999999997 303.65 136.29200000000003c0 0-57.958-72.292-74.162-95.351l-4.986 6.856zM501.206 363.139s14.539-90.365-58.479-216.252c0 0-63.669-121.524-102.308-162.034h11.841s63.547 54.22 132.733 205.034c0 0 44.714 112.178 32.958 178.237l-16.745-4.985zM359.115-15.147000000000048s196.478 57.505 215.629 65.438v-6.232c0-0.001-149.569-59.83-215.629-59.206zM581.599 53.40599999999995s-136.481 18.072-211.889 88.495c0 0-83.509 62.943-50.167 143.337l-27.733-6.232s-20.566-76.654 39.262-129.626c-0.001 0 87.247-98.466 250.527-95.974zM414.58 328.86199999999997s28.667-115.293 199.425-145.207l8.726 3.74s-192.562 64.189-192.562 149.777l-15.589-8.31zM235.098 40.94100000000003s199.9 66.06 244.919 86.626c0 0 82.264 26.798 142.714 66.059l-4.985-9.971s-56.089-38.639-150.815-75.407c0 0-100.336-41.755-236.819-72.915l4.986 5.608zM519.92 365.631s99.071-59.827 110.913-60.451v4.363s-96.444 57.958-105.322 64.19l-5.591-8.102zM549.186 676.611s-55.458 79.146-70.416 150.815c0 0-206.281-68.553-194.44-105.322l25.76-12.556 4.154 1.961s-19.942 18.696 48.61 56.089c0 0 66.06 36.146 112.177 51.103 0 0 15.58-108.438 52.973-138.975l21.182-3.115zM341.042 761.367l50.526-67.306 24.944-2.493-75.47 76.654zM501.206 733.946s-160.164 11.217-153.309 34.276h8.102s136.751-26.976 145.207-25.552v-8.724zM456.766 689.6990000000001s48.179 37.954 50.048 38.607l-3.116 5.64s-61.386-34.808-72.759-37.658c-11.374-2.851 25.827-6.589 25.827-6.589zM215.846 224.34299999999996c54.004 35.684 107.171 74.018 165.288 102.444 60.464 26.253 120.071 47.82 182.395 70.003 60.822 22.361 122.782 40.591 185.705 56.6 62.935 15.947 126.791 28.496 191.238 37.383l-9.76-19.962c-14.888 24.35-34.334 45.821-56.344 64.332-22.02 18.564-46.653 34.11-72.414 47.6a497.77 497.77 0 0 1-19.584 9.685c-6.597 3.106-13.241 6.132-19.963 9.003a599.898 599.898 0 0 1-20.331 8.266 695.449 695.449 0 0 1-20.608 7.678c-27.652 9.841-55.948 18.185-84.619 25.233-28.659 7.003-57.794 12.756-86.917 16.841-3.636 0.498-7.247 0.97-10.797 1.349l-11.274 1.236a2146.98 2146.98 0 0 0-22.539 2.722c-15.023 1.862-30.02 4.012-44.999 6.311-29.939 4.727-59.814 10.263-89.313 17.815-7.368 1.917-14.71 3.951-22.012 6.155-7.301 2.205-14.569 4.561-21.728 7.285-7.159 2.713-14.259 5.65-21.132 9.179-3.424 1.788-6.796 3.715-10.028 5.926-1.614 1.111-3.196 2.288-4.697 3.616a27.685 27.685 0 0 0-2.167 2.143c-0.347 0.386-0.683 0.79-1.006 1.225a11.139 11.139 0 0 0-0.477 0.691l-0.232 0.388c-0.081 0.149-0.142 0.252-0.271 0.547a1.62 1.62 0 1 0 2.971 1.294c-0.026 0.083 0.031-0.018 0.078-0.066l0.166-0.193c0.121-0.135 0.257-0.276 0.4-0.415 0.286-0.279 0.601-0.555 0.932-0.822a23.997 23.997 0 0 1 2.122-1.519c1.484-0.962 3.066-1.832 4.69-2.633 3.253-1.602 6.669-2.955 10.136-4.177 6.931-2.464 14.076-4.447 21.288-6.168 14.442-3.405 29.1-6.078 43.857-8.208 29.503-4.34 59.261-7.279 89.071-9.662 14.902-1.23 29.833-2.21 44.766-3.183l22.415-1.309 11.216-0.625c3.95-0.212 7.823-0.513 11.665-0.833 15.366-1.279 30.547-3.217 45.704-5.485 15.153-2.25 30.215-5.067 45.224-8.19 29.998-6.318 59.705-14.396 88.786-24.637 7.262-2.579 14.496-5.261 21.674-8.104a633.708 633.708 0 0 0 21.366-9.004c7.068-3.145 14.1-6.396 21.039-9.854a530.944 530.944 0 0 0 20.593-10.872 434.182 434.182 0 0 0 39.592-24.811c12.771-8.993 25.085-18.719 36.728-29.26 23.299-21.032 43.896-45.489 59.789-72.911l10.27-17.718-20.028-2.244c-63.62-7.125-126.857-18.122-189.391-32.393-62.549-14.216-124.444-32.854-185.355-53.341-60.944-20.386-120.986-42.426-179.757-68.681-29.383-13.128-58.455-26.986-87.121-41.661-14.349-7.303-28.602-14.803-42.719-22.554-14.101-7.766-28.14-15.716-41.803-24.169l-0.029-0.018a1.623 1.623 0 0 0-1.749 2.732zM209.963 218.34799999999996c41.157 33.063 79.92 69.152 113.493 109.449 8.364 10.084 16.385 20.433 23.952 31.061 7.543 10.635 14.661 21.577 20.888 32.849a181.168 181.168 0 0 1 4.4 8.473l1.057 2.271 0.956 2.286 1.811 4.49a309.195 309.195 0 0 1 3.422 9.077 297.476 297.476 0 0 1 3.198 9.113 337.505 337.505 0 0 1 5.489 18.396c1.652 6.155 2.99 12.367 4.214 18.561a224.385 224.385 0 0 1 2.809 18.658c0.702 6.223 1.173 12.449 1.331 18.663 0.085 3.106 0.092 6.209 0.031 9.306-0.033 3.095-0.14 6.185-0.318 9.267a189.717 189.717 0 0 1-1.964 18.362c-3.604 24.317-11.887 47.708-23.759 69.25-5.903 10.798-12.843 21.048-20.365 30.862-7.569 9.773-15.963 18.979-24.838 27.453a174.746 174.746 0 0 1-6.759 6.075l-1.686 1.406-1.482 1.188c0.106-0.081-1.082 0.831-0.637 0.496l-0.115 0.103-0.231 0.206-0.462 0.414-0.945 0.897-1.87 1.811-3.696 3.662-3.535 3.875c-2.375 2.572-4.537 5.397-6.716 8.212-4.201 5.783-8.093 12.021-10.82 19.185-1.318 3.587-2.418 7.409-2.595 11.542-0.101 2.046 0.081 4.204 0.753 6.241 0.363 1.011 0.828 1.993 1.505 2.808 0.654 0.811 1.506 1.478 2.423 1.709-0.584-1.762-0.026-3.268 0.639-4.522 0.68-1.271 1.639-2.372 2.629-3.432 2.051-2.092 4.394-3.979 6.841-5.796 4.9-3.625 10.104-7.044 15.353-10.458 2.564-1.773 5.27-3.408 7.849-5.198l3.958-2.594 3.911-2.675 3.442-2.293 1.311-0.968 1.13-0.863 2.166-1.703a202.806 202.806 0 0 0 8.169-6.928c10.57-9.387 20.062-19.719 28.763-30.734 8.736-10.982 16.397-22.838 23.08-35.25 6.721-12.396 12.093-25.551 16.321-39.05 4.184-13.521 6.898-27.496 8.289-41.545 2.614-28.153-0.677-56.531-8.782-82.9-1.97-6.613-4.333-13.083-6.848-19.452-2.511-6.374-5.327-12.602-8.339-18.702a306.657 306.657 0 0 0-4.658-9.061 327.575 327.575 0 0 0-5.004-8.84l-2.606-4.37-1.301-2.118-1.119-2.175c-1.632-3.072-3.347-5.995-5.107-8.893-7.058-11.548-14.855-22.44-23.054-32.993-8.199-10.549-16.86-20.686-25.844-30.5-17.956-19.641-37.226-37.955-57.332-55.201a801.43 801.43 0 0 0-62.796-48.463zM690.811 433.137c-11.202 10.033-23.855 19.852-35.554 29.38-11.68 9.552-23.726 18.717-36.167 27.376-6.239 4.303-12.542 8.533-18.979 12.561a597.859 597.859 0 0 1-19.576 11.684c-26.471 14.997-54.155 28.04-82.668 39.175-28.453 11.315-57.758 20.741-87.595 28.368-29.823 7.76-27.023 23.895 4.021 18.259 31.023-5.783 61.779-13.468 91.98-23.226 30.136-9.932 59.694-21.938 88.283-36.152a624.38 624.38 0 0 0 21.287-11.007c7.038-3.795 14.057-7.649 20.979-11.689 13.88-8.018 27.484-16.59 40.701-25.777 13.191-9.221 25.917-19.161 37.968-29.873a391.554 391.554 0 0 0 17.569-16.581M504.265 685.7280000000001c8.23-19.958 13.948-41.048 17.311-62.613a281.744 281.744 0 0 0 2.469-65.623 298.03 298.03 0 0 0-1.825-16.481c-0.375-2.582-0.886-5.504-1.393-8.193a245.919 245.919 0 0 0-1.716-8.188c-2.502-10.876-5.801-21.622-10.037-31.982-4.21-10.369-9.201-20.403-14.825-29.992-5.648-9.578-11.865-18.737-18.398-27.563-6.525-8.837-13.455-17.274-20.455-25.565-7.036-8.293-14.069-16.366-21.479-24.381-14.725-16.011-30.459-31.089-46.925-45.221-16.46-14.145-33.728-27.258-51.503-39.521a661.29 661.29 0 0 0-27.092-17.716 1221.997 1221.997 0 0 0-13.843-8.358c-4.669-2.697-9.327-5.403-14.073-7.968l24.617 20.859a2431.026 2431.026 0 0 1 24.386 20.923c16.127 14.034 31.881 28.382 47.111 43.169a828.927 828.927 0 0 1 43.838 45.999c3.495 3.96 6.938 7.99 10.421 12.042 3.481 4.033 6.939 8.071 10.345 12.135a573.112 573.112 0 0 1 19.681 24.744c6.273 8.385 12.16 16.977 17.458 25.855 5.328 8.86 10.081 18.002 14.081 27.457 3.982 9.458 7.342 19.177 9.879 29.155a230.665 230.665 0 0 1 1.778 7.52c0.546 2.57 1.021 4.922 1.525 7.631a295.142 295.142 0 0 1 2.579 15.396c2.967 20.684 3.939 41.738 3.158 62.878-0.768 21.152-3.362 42.347-7.073 63.602zM654.02 657.904c2.406-8.22 3.54-16.717 3.97-25.251 0.398-8.536 0.044-17.126-1.024-25.611-0.237-2.126-0.563-4.238-0.905-6.348l-0.531-3.162-0.138-0.789-0.033-0.198-0.05-0.225-0.088-0.378-0.35-1.511a310.785 310.785 0 0 0-3.186-12.34 307.855 307.855 0 0 0-7.864-24.303c-6.02-15.967-13.436-31.479-22.234-46.085-8.762-14.632-18.667-28.462-29.248-41.57a572.384 572.384 0 0 0-16.213-19.286l-8.241-9.245-8.168-9.25c-10.93-12.319-21.915-24.936-33.998-36.728a314.736 314.736 0 0 0-38.731-32.343 373.459 373.459 0 0 0-20.948-13.78 357.946 357.946 0 0 0-21.753-12.328c12.455 11.08 24.957 21.916 36.863 33.229 11.941 11.279 23.257 22.964 33.842 35.304 10.596 12.322 20.698 25.239 31.193 38.135 2.603 3.238 5.293 6.415 7.964 9.615 2.671 3.183 5.418 6.41 8.057 9.477 5.314 6.208 10.563 12.445 15.607 18.81 10.083 12.732 19.574 25.81 27.895 39.532 8.304 13.725 15.574 28.012 21.423 42.94a289.39 289.39 0 0 1 7.998 22.721 341.978 341.978 0 0 1 3.33 11.608l0.403 1.498 0.102 0.375 0.026 0.093c0.009 0.039 0.002-0.001 0.02 0.059l0.055 0.179 0.228 0.718 0.897 2.877 1.73 5.779c2.254 7.726 4.402 15.517 6.368 23.453 1.998 7.938 3.735 16.007 5.732 24.329zM822.932 605.777c-3.33-19.547-9.583-38.631-18.054-56.813-8.486-18.183-19.401-35.294-31.819-51.028-12.424-15.755-26.229-30.216-40.597-43.842-7.168-6.592-14.612-12.882-22.511-18.844-3.939-2.983-8.016-5.854-12.26-8.554-4.248-2.697-8.631-5.262-13.38-7.397 2.298 4.671 4.889 8.992 7.58 13.212a197.146 197.146 0 0 0 8.496 12.259c5.923 7.931 12.35 15.483 19.262 22.523 13.745 13.669 27.159 27.496 39.711 41.958 12.563 14.455 24.224 29.585 34.734 45.696 10.567 16.088 19.774 33.202 28.838 50.83zM345.965 348.18600000000004a554.561 554.561 0 0 0 25.007 24.114c8.562 7.806 17.35 15.363 26.277 22.762 17.879 14.767 36.438 28.729 55.501 41.985 38.164 26.459 78.401 50.008 120.13 70.507 41.727 20.505 84.978 37.926 129.251 51.931 22.144 6.98 44.542 13.115 67.147 18.258 11.308 2.555 22.654 4.9 34.056 6.94a594.59 594.59 0 0 0 34.343 5.212l-32.763-11.264c-10.886-3.781-21.745-7.563-32.546-11.472-21.612-7.778-43.068-15.82-64.323-24.294-42.53-16.878-84.302-35.349-125.282-55.445-40.977-20.104-81.146-41.848-120.515-65.167-19.703-11.632-39.191-23.681-58.536-36.055-19.37-12.348-38.491-25.146-57.747-38.012zM393.713 451.725c9.035 12.098 18.943 23.434 29.211 34.426 10.293 10.968 21.066 21.47 32.155 31.625 22.229 20.251 45.81 38.995 70.375 56.296a759.91 759.91 0 0 0 76.561 47.41c13.221 7.112 26.646 13.838 40.313 20.063 6.844 3.096 13.723 6.107 20.693 8.933a383.03 383.03 0 0 0 21.133 7.977c-11.965-9.213-24.18-17.829-36.34-26.475-12.179-8.606-24.398-17.063-36.577-25.538-24.396-16.885-48.696-33.723-72.875-50.714a5613.08 5613.08 0 0 1-72.171-51.577l-36-26.22-18.112-13.153a989.284 989.284 0 0 0-18.366-13.053zM394.681 577.3240000000001c1.69 3.162 3.557 6.145 5.497 9.073 1.928 2.933 3.958 5.767 6.025 8.568 4.152 5.583 8.573 10.903 13.13 16.087 9.161 10.32 19.057 19.883 29.473 28.832 10.428 8.937 21.396 17.241 32.981 24.723a248.85 248.85 0 0 0 17.886 10.531c3.083 1.617 6.188 3.195 9.378 4.66 3.183 1.474 6.417 2.872 9.798 4.069-2.021-2.964-4.184-5.736-6.381-8.455-2.19-2.729-4.453-5.356-6.722-7.967a360.601 360.601 0 0 0-14.071-15.035c-9.607-9.7-19.605-18.857-29.898-27.669-10.304-8.8-20.885-17.27-31.935-25.277-5.548-3.979-11.166-7.897-16.984-11.624-2.919-1.854-5.854-3.696-8.877-5.454-3.01-1.766-6.073-3.497-9.3-5.062zM377.385 697.624c7.893-10.171 13.98-21.39 19.39-32.877 2.634-5.773 5.105-11.629 7.288-17.595a208.038 208.038 0 0 0 1.603-4.488c0.557-1.625 1.058-2.91 1.593-4.547 1.024-3.13 1.943-6.208 2.726-9.374 3.157-12.603 4.434-25.751 3.541-38.719a112.472 112.472 0 0 0-3.022-19.212c-1.595-6.292-3.653-12.46-6.732-18.349-1.518 6.472-2.425 12.718-3.378 18.871l-2.668 18.153c-1.728 11.938-3.566 23.616-5.697 35.365l-1.626 8.801a186.252 186.252 0 0 1-0.857 4.471l-0.974 4.493-3.917 18.063c-2.531 12.133-5.235 24.257-7.27 36.944zM400.461 477.331c3.572 0.022 7.066-0.362 10.524-0.96 3.467-0.584 6.87-1.447 10.241-2.477a89.806 89.806 0 0 0 19.348-8.694c12.266-7.308 22.957-17.621 30.989-29.654 8.052-12.031 13.415-25.727 15.745-39.667 1.187-6.97 1.588-14.02 1.273-20.998-0.19-3.494-0.52-6.966-1.107-10.417-0.573-3.448-1.335-6.87-2.48-10.256-1.634 3.18-3.034 6.314-4.417 9.401l-4.055 9.112a633.294 633.294 0 0 1-7.974 17.387c-5.396 11.228-11.132 21.724-17.718 31.604-6.573 9.891-14.004 19.131-22.397 28.158a343.862 343.862 0 0 1-13.311 13.475c-2.33 2.267-4.739 4.505-7.182 6.824-2.453 2.305-4.965 4.626-7.479 7.162zM213.98 221.37s-101.966-69.187-52.733-141.79c0 0 35.523-62.631 161.722-96.598 0 0 144.272-33.34 219.991-29.601 0 0 9.038 1.869-16.203 6.854 0 0-72.877 10.811-146.453 25.862-51.476 10.532-100.322 31.201-122.46 45.183 0 0-129.315 71.046-68.864 149.258 0 0 20.914 32.032 52.056 54.967M535.012-46.073999999999955s48.847 108.205 75.021 251.542c0 0 17.688 104.204 0 192.57l19.944 7.041s19.941-83.071-3.116-230.147c0 0-20.753-119.558-82.45-220.829M542.96-45.84100000000001s-1.385-0.233-3.722-0.233c-3.706 0-3.725 1.792-3.725 1.792M165.298 139.409s225.6 62.942 291.66 90.364c0 0 127.756 49.232 165.772 87.871v-13.088s-109.256-83.509-222.27-112.177c0 0-131.71-39.884-235.163-59.205v6.235zM224.502 47.797000000000025s129.095 167.642 164.884 266.732l25.194 11.84S384.845 216.65999999999997 303.65 136.29200000000003c0 0-57.958-72.292-74.162-95.351l-4.986 6.856zM501.206 363.139s14.539-90.365-58.479-216.252c0 0-63.669-121.524-102.308-162.034h11.841s63.547 54.22 132.733 205.034c0 0 44.714 112.178 32.958 178.237l-16.745-4.985zM359.115-15.147000000000048s196.478 57.505 215.629 65.438v-6.232c0-0.001-149.569-59.83-215.629-59.206zM581.599 53.40599999999995s-136.481 18.072-211.889 88.495c0 0-83.509 62.943-50.167 143.337l-27.733-6.232s-20.566-76.654 39.262-129.626c-0.001 0 87.247-98.466 250.527-95.974zM414.58 328.86199999999997s28.667-115.293 199.425-145.207l8.726 3.74s-192.562 64.189-192.562 149.777l-15.589-8.31zM235.098 40.94100000000003s199.9 66.06 244.919 86.626c0 0 82.264 26.798 142.714 66.059l-4.985-9.971s-56.089-38.639-150.815-75.407c0 0-100.336-41.755-236.819-72.915l4.986 5.608zM519.92 365.631s99.071-59.827 110.913-60.451v4.363s-96.444 57.958-105.322 64.19l-5.591-8.102zM549.186 676.611s-55.458 79.146-70.416 150.815c0 0-206.281-68.553-194.44-105.322l25.76-12.556 4.154 1.961s-19.942 18.696 48.61 56.089c0 0 66.06 36.146 112.177 51.103 0 0 15.58-108.438 52.973-138.975l21.182-3.115zM341.042 761.367l50.526-67.306 24.944-2.493-75.47 76.654zM501.206 733.946s-160.164 11.217-153.309 34.276h8.102s136.751-26.976 145.207-25.552v-8.724zM456.766 689.6990000000001s48.179 37.954 50.048 38.607l-3.116 5.64s-61.386-34.808-72.759-37.658c-11.374-2.851 25.827-6.589 25.827-6.589z"  horiz-adv-x="1024" />
      
      <glyph glyph-name="Mysql" unicode="&#60457;" d="M699.946667 653.8240000000001c-4.906667 0-8.234667-0.597333-11.690667-1.408v-0.554667h0.597333c2.304-4.437333 6.229333-7.68 9.130667-11.648 2.304-4.565333 4.266667-9.130667 6.570667-13.653333l0.597333 0.64c4.010667 2.816 5.973333 7.338667 5.973333 14.208-1.706667 2.005333-1.962667 4.010667-3.413333 5.973333-1.706667 2.858667-5.376 4.266667-7.68 6.528zM246.186667 90.88h-39.552a2169.770667 2169.770667 0 0 1-11.52 188.16h-0.341334l-60.16-188.16H104.533333l-59.733333 188.16h-0.426667a3110.058667 3110.058667 0 0 1-8.32-188.16H0c2.346667 83.882667 8.192 162.56 17.493333 235.946667h49.066667l56.96-173.397334h0.341333L181.333333 326.82666700000004h46.72c10.325333-85.973333 16.384-164.693333 18.261334-235.946667z m171.392 174.08c-16.128-87.253333-37.376-150.741333-63.658667-190.293333-20.565333-30.549333-43.093333-45.781333-67.541333-45.781334-6.528 0-14.506667 1.962667-24.149334 5.888v21.077334c4.693333-0.725333 10.24-1.109333 16.469334-1.109334 11.434667 0 20.608 3.2 27.605333 9.472 8.405333 7.68 12.586667 16.298667 12.586667 25.813334 0 6.613333-3.285333 20.053333-9.813334 40.277333L265.813333 264.96000000000004h38.826667l31.018667-100.693333c6.997333-22.869333 9.941333-38.826667 8.746666-47.914667 17.066667 45.397333 28.928 95.018667 35.626667 148.608h37.546667z m525.866666-174.08h-112.213333v235.946667h37.76v-206.933334h74.453333z m-141.653333-5.76l-43.349333 21.333333c3.84 3.242667 7.552 6.741333 10.88 10.666667 18.474667 21.589333 27.648 53.674667 27.648 96.128 0 78.08-30.634667 117.162667-91.946667 117.162667-30.037333 0-53.504-9.898667-70.4-29.738667-18.346667-21.674667-27.562667-53.589333-27.562667-95.786667 0-41.472 8.106667-71.936 24.490667-91.306666 14.933333-17.493333 37.418667-26.24 67.541333-26.24 11.264 0 21.589333 1.408 30.933334 4.181333l56.533333-32.938667 15.36 26.538667zM661.333333 138.11199999999997c-9.6 15.36-14.378667 40.106667-14.378666 74.069333 0 59.434667 18.090667 89.173333 54.186666 89.173334 18.901333 0 32.853333-7.125333 41.685334-21.333334 9.557333-15.445333 14.336-39.936 14.336-73.514666 0-59.904-18.090667-89.941333-54.186667-89.941334-18.986667 0-32.853333 7.125333-41.728 21.333334z m-70.741333 18.133333c0-20.053333-7.338667-36.522667-22.016-49.322666s-34.261333-19.2-59.050667-19.2c-23.168 0-45.397333 7.338667-67.114666 21.973333l10.112 20.309333c18.688-9.386667 35.541333-13.994667 50.773333-13.994666 14.165333 0 25.301333 3.114667 33.408 9.386666a32.170667 32.170667 0 0 1 12.8 26.24c0 14.08-9.813333 26.026667-27.648 36.053334-16.554667 9.088-49.621333 28.032-49.621333 28.032-18.005333 13.098667-26.965333 27.136-26.965334 50.218666 0 19.2 6.698667 34.56 20.053334 46.293334 13.44 11.861333 30.72 17.706667 52.053333 17.706666 21.845333 0 41.813333-5.802667 59.733333-17.493333l-9.088-20.309333a116.309333 116.309333 0 0 1-45.397333 9.813333c-12.074667 0-21.418667-2.901333-27.904-8.789333a29.226667 29.226667 0 0 1-10.581333-22.357334c0-13.994667 9.984-26.026667 28.416-36.266666 16.768-9.173333 50.645333-28.586667 50.645333-28.586667 18.474667-13.013333 27.648-26.88 27.648-49.834667z m400.298667 249.685334c-22.826667 0.597333-40.533333-1.706667-55.338667-8.021334-4.266667-1.706667-11.093333-1.706667-11.690667-7.125333 2.346667-2.261333 2.688-5.973333 4.693334-9.130667 3.413333-5.717333 9.301333-13.354667 14.762666-17.365333 5.973333-4.693333 11.946667-9.216 18.218667-13.226667 11.093333-6.826667 23.68-10.88 34.56-17.749333 6.186667-4.010667 12.501333-9.088 18.773333-13.354667 3.114667-2.133333 5.12-5.973333 9.130667-7.338666v0.853333c-1.962667 2.56-2.56 6.272-4.48 9.130667-2.858667 2.858667-5.717333 5.418667-8.533333 8.234666a137.514667 137.514667 0 0 1-29.653334 28.8c-9.130667 6.229333-29.098667 14.933333-32.853333 25.386667l-0.554667 0.597333c6.229333 0.554667 13.653333 2.816 19.626667 4.522667 9.685333 2.56 18.56 2.005333 28.586667 4.522667 4.522667 1.152 9.088 2.56 13.653333 4.010666v2.56c-5.12 5.12-8.96 12.074667-14.250667 16.853334a378.325333 378.325333 0 0 1-47.104 35.114666c-8.96 5.717333-20.309333 9.386667-29.738666 14.250667-3.413333 1.706667-9.130667 2.56-11.093334 5.418667-5.12 6.229333-8.106667 14.506667-11.733333 21.930666a754.773333 754.773333 0 0 0-23.338667 49.621334c-5.12 11.178667-8.234667 22.314667-14.506666 32.554666-29.44 48.512-61.312 77.909333-110.336 106.666667-10.538667 5.973333-23.168 8.533333-36.522667 11.690667-7.125333 0.341333-14.250667 0.853333-21.333333 1.152-4.693333 2.005333-9.216 7.424-13.226667 10.026666-16.213333 10.24-58.197333 32.426667-70.144 3.072-7.68-18.517333 11.392-36.778667 18.005333-46.165333 4.906667-6.528 11.093333-13.994667 14.506667-21.333333 2.005333-4.949333 2.56-10.026667 4.565333-15.189334 4.522667-12.544 8.832-26.538667 14.805334-38.272 3.114667-5.973333 6.528-12.245333 10.538666-17.621333 2.304-3.114667 6.229333-4.565333 7.125334-9.685333-4.010667-5.802667-4.266667-14.250667-6.570667-21.333334-10.24-32.298667-6.229333-72.234667 8.277333-96 4.565333-7.082667 15.445333-22.784 29.994667-16.768 12.8 5.12 9.984 21.333333 13.653333 35.626667 0.853333 3.413333 0.298667 5.674667 2.048 7.978667v-0.64c4.010667-8.021333 8.021333-15.658667 11.690667-23.68 8.789333-13.994667 24.149333-28.501333 36.992-38.186667 6.826667-5.12 12.245333-13.994667 20.778667-17.152v0.853333h-0.64c-1.834667 2.474667-4.266667 3.669333-6.570667 5.674667a146.986667 146.986667 0 0 0-14.933333 17.066667 373.76 373.76 0 0 0-31.872 51.968c-4.693333 8.96-8.618667 18.602667-12.373334 27.434666-1.706667 3.413333-1.706667 8.533333-4.565333 10.24-4.266667-6.229333-10.538667-11.648-13.653333-19.328-5.418667-12.288-5.973333-27.392-8.021334-43.093333-1.152-0.298667-0.597333 0-1.152-0.597333-9.130667 2.218667-12.245333 11.690667-15.658666 19.626666-8.533333 20.266667-9.941333 52.821333-2.56 76.16 2.005333 5.973333 10.538667 24.832 7.125333 30.549334-1.792 5.418667-7.424 8.533333-10.538667 12.928a105.728 105.728 0 0 0-10.24 18.218666c-6.826667 15.957333-10.24 33.621333-17.664 49.578667-3.413333 7.381333-9.386667 15.104-14.250666 21.888-5.418667 7.68-11.392 13.098667-15.701334 22.186667-1.408 3.114667-3.413333 8.277333-1.152 11.690666 0.597333 2.304 1.792 3.2 4.010667 3.84 3.754667 3.072 14.293333-0.938667 18.005333-2.645333 10.538667-4.266667 19.413333-8.277333 28.245334-14.250667 4.010667-2.816 8.32-8.234667 13.44-9.642666h5.973333c9.130667-2.005333 19.413333-0.597333 27.946667-3.114667 15.146667-4.864 28.8-11.946667 41.045333-19.626667a253.994667 253.994667 0 0 0 88.96-97.536c3.413333-6.570667 4.906667-12.586667 8.021333-19.413333 5.973333-14.08 13.354667-28.288 19.413334-41.898667 5.973333-13.44 11.733333-27.136 20.309333-38.272 4.266667-5.973333 21.418667-9.088 29.098667-12.202666 5.674667-2.56 14.506667-4.906667 19.626666-8.021334 9.813333-5.973333 19.370667-12.8 28.586667-19.370666 4.693333-3.242667 18.901333-10.368 19.754667-16.128z"  horiz-adv-x="1024" />
      
      <glyph glyph-name="changliang" unicode="&#58961;" d="M42.667 341.76v-356.523c0-35.925 29.184-65.109 65.109-65.109h843.435c35.84 0 65.109 29.184 65.109 65.11V341.844a65.195 65.195 0 0 1-65.11 65.11H107.777a65.195 65.195 0 0 1-65.11-65.195z m61.013-356.523V341.845c0 2.219 1.877 4.096 4.096 4.096h238.25v-364.8h-238.25a4.096 4.096 0 0 0-4.096 4.096z m303.445 360.619H650.07v-364.715H407.04V345.856z m548.182-4.096v-356.523a4.096 4.096 0 0 0-4.096-4.096H711.083V345.856H951.21c2.218 0 4.096-1.792 4.096-4.096zM290.389 727.723c-4.949 34.73-38.144 61.098-76.288 61.098-68.864 0-94.72-58.624-94.72-119.722 0-58.112 25.856-116.736 94.72-116.736 46.934 0 73.387 32.256 79.19 78.165h74.24c-7.766-87.04-67.926-142.677-153.344-142.677-108.032 0-171.52 80.64-171.52 181.162 0 103.68 63.488 184.32 171.52 184.32 76.629 0 141.141-44.97 150.442-125.61h-74.24z m553.814 30.89a30.464 30.464 0 0 1 0.853-43.093l40.875-39.424H499.883a30.55 30.55 0 1 1 0-61.013h385.024l-39.766-37.547a30.55 30.55 0 0 1 41.984-44.373l95.403 90.282a30.379 30.379 0 0 1 9.557 22.016v0.171c0 8.277-3.413 16.213-9.386 21.93l-95.403 91.905a30.464 30.464 0 0 1-43.093-0.854z"  horiz-adv-x="1024" />
      
      <glyph glyph-name="charu-gengxin" unicode="&#58978;" d="M180.224 683.008v-54.272h182.272V809.472H308.224v-88.064L159.232 870.4l-38.4-38.4 149.504-148.992zM624.64 724.992c-15.872 0-35.328-0.512-56.832-1.536l-53.248-53.248c30.72 4.096 67.584 6.144 110.08 6.144 142.848 0 224.256-27.648 229.888-41.984v-21.504c-29.696-20.48-110.08-37.888-224.768-37.888-82.944 0-147.968 8.704-189.44 20.992l-17.92-17.92c9.216-3.072 19.456-6.144 30.72-8.704 47.104-10.752 110.08-16.896 177.152-16.896 32.256 0 161.28 2.048 224.768 33.792v-138.752c-11.776-8.192-30.72-15.36-55.808-21.504-44.032-10.24-103.936-16.384-168.448-16.384-117.76 0-199.68 17.408-229.888 37.888V555.52L351.744 506.88v-238.592H128v-199.68h51.2v48.128h-2.56V220.16h439.296v-102.912h-1.024v-48.128h49.664v142.848c52.224 2.048 140.8 8.704 190.464 33.28v-141.312c0-4.608-10.752-18.944-59.392-31.744-4.096-1.024-9.216-2.048-13.312-3.072-29.696-6.144-72.192-10.24-108.032-12.288-3.072 0-6.144-0.512-9.216-0.512v-15.36h-48.64v-66.048h48.64v32.256c54.272 2.048 103.936 8.192 142.848 18.432 63.488 16.896 95.744 43.52 95.744 78.848V633.856c-0.512 84.48-213.504 91.136-279.04 91.136z m229.888-453.12c-11.776-8.192-30.72-15.36-55.808-21.504-36.352-8.704-82.944-13.824-134.144-15.36v33.28H406.016c-2.048 1.024-4.096 2.56-6.144 3.584V421.376c13.824-6.656 31.232-12.8 52.736-17.92 47.104-10.752 110.08-16.896 177.152-16.896 32.256 0 161.28 2.048 224.768 33.792v-148.48zM176.64 40.96h2.56v-66.048h-2.56zM176.64-53.76h2.56zM207.872-53.76h73.216zM309.248-53.76h73.216zM614.912-53.76h1.024zM411.136-53.76h73.216zM513.024-53.76h73.216zM615.936 220.16H176.64v-102.912h439.296zM207.872 40.96h73.216v-66.048H207.872zM309.248 40.96h73.216v-66.048H309.248zM411.136 40.96h73.216v-66.048H411.136zM513.024 40.96h73.216v-66.048h-73.216zM614.912 40.96h1.024v-66.048h-1.024zM207.872 117.248h73.216v-48.128H207.872zM513.024 117.248h73.216v-48.128h-73.216zM411.136 117.248h73.216v-48.128H411.136zM309.248 117.248h73.216v-48.128H309.248zM411.136-53.76h73.216v-48.64H411.136zM309.248-53.76h73.216v-48.64H309.248zM207.872-53.76h73.216v-48.64H207.872zM128 40.96h48.64v-66.048H128zM513.024-53.76h73.216v-48.64h-73.216zM615.936-53.76h-1.024v-48.64h49.664v48.64zM176.64-53.76H128v-48.64h51.2v48.64z"  horiz-adv-x="1024" />
      
      <glyph glyph-name="shougongshujubiao" unicode="&#58959;" d="M329.955556 213.333333c0 45.511111 5.688889 85.333333 28.444444 130.844445v113.777778h73.955556c22.755556 22.755556 39.822222 39.822222 62.577777 51.2H358.4V657.066667H568.888889V554.666667c22.755556 5.688889 34.133333 11.377778 51.2 22.755555V657.066667h221.866667v-113.777778c22.755556-5.688889 39.822222-22.755556 62.577777-34.133333V759.466667c0 39.822222-11.377778 62.577778-62.577777 62.577777H73.955556c-39.822222 0-51.2-11.377778-51.2-51.2v-648.533333c0-39.822222 11.377778-51.2 51.2-51.2h278.755555c-11.377778 34.133333-22.755556 91.022222-22.755555 142.222222zM73.955556 657.066667h221.866666v-147.911111H91.022222c-5.688889 0-11.377778 5.688889-11.377778 11.377777-5.688889 45.511111-5.688889 91.022222-5.688888 136.533334z m221.866666-199.111111v-147.911112H79.644444V457.955556h216.177778z m0-335.644445H79.644444V270.222222h216.177778v-147.911111zM870.4 128L779.377778 213.333333c28.444444 45.511111 17.066667 96.711111-22.755556 136.533334-28.444444 28.444444-79.644444 39.822222-125.155555 22.755555-5.688889 0-5.688889-5.688889-5.688889-11.377778 34.133333-34.133333 73.955556-62.577778 73.955555-62.577777 11.377778-11.377778 11.377778-28.444444 0-39.822223l-17.066666-17.066666c-5.688889-5.688889-11.377778-11.377778-22.755556-11.377778-5.688889 0-11.377778 0-17.066667 5.688889 0 0-34.133333 39.822222-62.577777 73.955555-17.066667-45.511111-5.688889-96.711111 22.755555-125.155555 22.755556-22.755556 56.888889-39.822222 85.333334-39.822222 17.066667 0 39.822222 5.688889 56.888888 17.066666l73.955556-91.022222c5.688889-5.688889 17.066667-11.377778 28.444444-11.377778 5.688889 0 17.066667 0 22.755556 11.377778l22.755556 17.066667c5.688889 5.688889 11.377778 17.066667 11.377777 22.755555-22.755556 0-28.444444 11.377778-34.133333 17.066667zM705.422222 520.533333C534.755556 520.533333 398.222222 384 398.222222 213.333333s136.533333-307.2 307.2-307.2c170.666667 0 307.2 136.533333 307.2 307.2s-142.222222 307.2-307.2 307.2z m0-551.822222c-136.533333 0-244.622222 108.088889-244.622222 244.622222s108.088889 244.622222 244.622222 244.622223 244.622222-108.088889 244.622222-244.622223-113.777778-244.622222-244.622222-244.622222z"  horiz-adv-x="1024" />
      
      <glyph glyph-name="kaishi" unicode="&#60975;" d="M512-65A449.11 449.11 0 0 0 337.22 797.7a449.11 449.11 0 0 0 349.56-827.4A446.27 446.27 0 0 0 512-65z m0 826a377 377 0 1 1 266.58-110.42A374.52 374.52 0 0 1 512 761zM395.88 167.65V571.33c0 17.44 13.67 32.18 31.1 32.66a32 32 0 0 0 32.9-32V261.7l171 123.91-104.76 76.55a32 32 0 0 0 37.76 51.68l158-115.48a16 16 0 0 0 0-25.87l-300.6-217.8a16 16 0 0 0-25.4 12.96z"  horiz-adv-x="1024" />
      
      <glyph glyph-name="guolv" unicode="&#58903;" d="M640-32a34.56 34.56 0 0 0-14.08 3.2l-256 128A32.64 32.64 0 0 0 352 128V498.56L105.6 745.6a30.08 30.08 0 0 0-7.04 34.56A32 32 0 0 0 128 800h768a32 32 0 0 0 29.44-19.84 30.08 30.08 0 0 0-7.04-34.56L672 498.56V0a33.28 33.28 0 0 0-15.36-27.52 37.76 37.76 0 0 0-16.64-4.48z m-224 179.84l192-96V512a30.08 30.08 0 0 0 9.6 22.4l200.96 201.6H205.44l200.96-201.6A30.08 30.08 0 0 0 416 512z"  horiz-adv-x="1024" />
      
      <glyph glyph-name="value_mapper" unicode="&#58880;" d="M1008.48197518 270.72790073a113.27209927 113.27209927 0 0 0-113.27209813-113.27209814H717.21086408V545.8172837h161.81728369a97.09036999 97.09036999 0 0 0 97.09037113-97.09036999 96.44310073 96.44310073 0 0 0-35.40562261-74.40358742A113.17500814 113.17500814 0 0 0 1008.48197518 270.72790073z m-113.27209813 167.48088889c0 23.69004999-19.19153038 42.88158037-42.88158037 42.88158037H781.93777778v-85.95734073h70.3905189c23.69004999 0 42.88158037 19.19153038 42.88158037 42.88158037v0.19417999z m32.36345629-151.29915961a64.72691371 64.72691371 0 0 1-64.72691371 64.7269137H781.93777778v-129.45382741h97.09036999a48.54518557 48.54518557 0 0 1 48.54518557 48.54518443V286.90963001zM490.66666667 286.90963001h-97.09036999v129.45382628h97.09036999v63.98255445L657.53265038 351.63654370999996 490.66666667 222.92707555000004V286.90963001z m-215.76716629 0H123.89161074L69.94172814 157.45580258999996H5.21481444l161.81728484 388.36148111h64.72691256l161.81728484-388.36148111h-64.72691371l-53.94988259 129.45382742zM199.39555556 468.14498816L150.85037 351.63654370999996h97.09037112L199.39555556 468.14498816z"  horiz-adv-x="1024" />
      
      <glyph glyph-name="delete" unicode="&#58884;" d="M619.008 890.539c56.32 0 101.973-43.094 101.973-95.83v-78.506H916.14c22.528 0.938 41.642-15.36 42.752-36.438 1.109-21.162-16.214-39.168-38.742-40.192a43.52 43.52 0 0 0-4.096 0H877.74V103.50999999999999c0-89.6-77.739-162.73-173.312-162.73H272.469c-95.573 0-173.312 72.96-173.312 162.816V639.488H60.843c-22.528 0-40.79 17.152-40.79 38.4 0 21.077 18.262 38.23 40.79 38.23H256v78.591c0 52.907 45.739 95.83 101.973 95.83h261.12zM796.16 639.488H180.821v-535.893c0-47.531 41.216-86.187 91.734-86.187H704.34c50.603 0 91.734 38.57 91.734 86.187V639.488h0.17zM374.613 490.155c20.822 0 37.718-15.872 37.803-35.414v-272.554c-1.536-19.627-19.712-34.304-40.619-32.854a36.693 36.693 0 0 0-34.986 32.854V454.74c0.085 19.627 16.981 35.414 37.802 35.414z m227.499 0c20.821 0 37.717-15.872 37.717-35.414v-272.554c-1.536-19.627-19.626-34.304-40.533-32.854a36.693 36.693 0 0 0-34.987 32.854V454.74c0.086 19.627 16.982 35.414 37.803 35.414zM619.008 814.08h-261.12c-11.264 0-20.48-8.619-20.48-19.285v-78.507h301.91V794.88c0 10.581-9.046 19.2-20.31 19.285v-0.085z"  horiz-adv-x="1024" />
      
      </font>
</defs>
</svg>
