<?xml version="1.0" standalone="no"?><!DOCTYPE svg PUBLIC "-//W3C//DTD SVG 1.1//EN" "http://www.w3.org/Graphics/SVG/1.1/DTD/svg11.dtd"><svg t="1693528390762" class="icon" viewBox="0 0 1024 1024" version="1.1" xmlns="http://www.w3.org/2000/svg" p-id="6064" xmlns:xlink="http://www.w3.org/1999/xlink" width="24" height="24"><path d="M577.4 205.7v241.2h241.2V205.7H577.4zM774.8 403H621.3V249.5h153.5V403z m0 0M818.6 819.6v-43.8h-44.1l43.8 43.8zM665.2 666.4l21.5 21.6H709v-43.8h-43.8zM709 578.4h109.6v43.8H709zM774.8 490.7h43.8v43.8h-43.8zM774.8 688.1h-21.9v43.8h43.8v-43.8h21.9v-43.9h-43.8zM621.3 578.4h43.9v43.8h-43.9zM489.7 337.2h43.8V381h-43.8zM533.3 534.5h44.1v43.9h43.9v-87.7h-87.7v-65.8h-43.9v65.8h-0.3zM665.2 490.7h87.7v43.8h-87.7zM489.7 227.6h43.8v65.8h-43.8zM248.5 249.8v-0.3H402V403h-0.3l43.9 43.9h0.2V205.7H204.7v0.3z" p-id="6065" fill="#4778FB"></path><path d="M357.8 359.1h0.4v-65.8h-65.8v0.4zM665.2 293.3H731v65.8h-65.8z" p-id="6066" fill="#4778FB"></path></svg>